<?xml version="1.0" standalone="no"?>
<!DOCTYPE svg PUBLIC "-//W3C//DTD SVG 1.1//EN" "http://www.w3.org/Graphics/SVG/1.1/DTD/svg11.dtd" >
<svg xmlns="http://www.w3.org/2000/svg">
<metadata></metadata>
<defs>
<font id="savignylight_cond_italic" horiz-adv-x="865" >
<font-face units-per-em="2048" ascent="1536" descent="-512" />
<missing-glyph horiz-adv-x="357" />
<glyph unicode="&#xfb01;" horiz-adv-x="834" d="M74 -354l246 1153h-115l13 67h115l43 199q39 180 112.5 255.5t204.5 75.5q107 0 208 -44l-24 -65q-84 42 -199 42q-98 0 -145.5 -60.5t-78.5 -203.5l-43 -199h414l-138 -652q-13 -59 -13 -99q0 -37 14.5 -52.5t48.5 -15.5q23 0 34 5l-6 -61q-22 -10 -65 -10 q-57 0 -82.5 26.5t-25.5 83.5q0 49 17 123l125 585h-336l-245 -1153h-79z" />
<glyph unicode="&#xfb02;" horiz-adv-x="834" d="M74 -354l246 1153h-115l13 67h115l43 199q39 180 112.5 255.5t204.5 75.5q82 0 162 -28l1 10h79l-248 -1164q-13 -59 -13 -99q0 -37 14.5 -52.5t48.5 -15.5q23 0 34 5l-6 -61q-22 -10 -63 -10q-57 0 -83.5 26.5t-26.5 83.5q0 49 17 123l125 585h-336l-245 -1153h-79z M411 866h336l93 435q-80 28 -162 28q-98 0 -145.5 -60.5t-78.5 -203.5z" />
<glyph unicode="&#xfb03;" horiz-adv-x="1234" d="M151 0l169 799h-115l13 67h115l24 110q40 182 113.5 256.5t210.5 74.5q90 0 172 -45q76 134 249 134q97 0 201 -44l-24 -65q-84 42 -190 42q-101 0 -148.5 -60.5t-78.5 -203.5l-43 -199h404l-138 -656q-13 -59 -13 -96t15 -53t49 -16q19 0 33 5l-4 -59q-28 -10 -68 -10 q-55 0 -81 26.5t-26 83.5q0 49 17 123l125 585h-326l-169 -799h-78l169 799h-330l-169 -799h-78zM411 866h330l43 199q19 89 37 134q-73 41 -154 41q-102 0 -151 -60.5t-80 -203.5z" />
<glyph unicode="&#xfb04;" horiz-adv-x="1243" d="M74 -354l246 1153h-115l13 67h115l24 110q40 182 113.5 256.5t210.5 74.5q90 0 172 -45q76 134 249 134q82 0 162 -28l2 10h76l-247 -1164q-13 -59 -13 -99q0 -37 14.5 -52.5t48.5 -15.5q23 0 34 5l-2 -61q-28 -10 -69 -10q-56 0 -81 25.5t-25 82.5q0 52 16 125l125 585 h-337l-246 -1153h-78l246 1153h-330l-245 -1153h-79zM411 866h330l43 199q19 89 37 134q-73 41 -156 41q-101 0 -149.5 -60.5t-79.5 -203.5zM819 866h337l93 435q-80 28 -164 28q-98 0 -145 -60.5t-78 -203.5z" />
<glyph horiz-adv-x="2048" />
<glyph horiz-adv-x="2048" />
<glyph unicode="&#xd;" horiz-adv-x="2048" />
<glyph unicode=" "  horiz-adv-x="357" />
<glyph unicode="&#x09;" horiz-adv-x="357" />
<glyph unicode="&#xa0;" horiz-adv-x="357" />
<glyph unicode="!" horiz-adv-x="420" d="M166 47q0 32 21 54t49 22q20 0 32.5 -13t12.5 -34q0 -28 -22.5 -51t-48.5 -23q-20 0 -32 13t-12 32zM236 324l220 1026h82l-220 -1026h-82z" />
<glyph unicode="&#x22;" horiz-adv-x="448" d="M296 888l88 415h74l-87 -415h-75zM458 888l82 415h78l-87 -415h-73z" />
<glyph unicode="#" horiz-adv-x="863" d="M125 402l15 65h208l134 382h-205l15 65h216l149 406h67l-149 -406h185l145 406h67l-145 -406h171l-15 -65h-184l-138 -382h182l-14 -65h-194l-143 -402h-68l146 402h-185l-145 -402h-63l143 402h-195zM415 467h181l136 382h-185z" />
<glyph unicode="$" horiz-adv-x="737" d="M63 28l28 67q122 -43 244 -43q91 0 166 38t123 118.5t48 189.5q0 56 -21.5 101.5t-56.5 77t-76.5 59t-83.5 55.5t-77 60.5t-56.5 80t-21.5 106.5q0 159 95.5 264t262.5 118l33 160h78l-33 -158q95 -3 218 -28l-21 -67q-142 26 -229 26q-142 0 -231 -77.5t-89 -214.5 q0 -52 22 -93.5t57 -70t77.5 -55t84.5 -55t77 -62.5t57 -85.5t22 -116.5q0 -193 -105.5 -308t-272.5 -130l-38 -171h-78l36 167q-138 7 -239 47z" />
<glyph unicode="%" horiz-adv-x="1522" d="M210 806q0 140 54 258.5t149 188t209 69.5q121 0 184 -72.5t63 -197.5q0 -140 -54.5 -258.5t-149.5 -187t-209 -68.5q-120 0 -183 72t-63 196zM294 823q0 -99 46 -158.5t131 -59.5q126 0 219.5 128.5t93.5 303.5q0 99 -45 158.5t-130 59.5q-84 0 -157.5 -61 t-115.5 -160.5t-42 -210.5zM341 -26l996 1359h87l-994 -1359h-89zM899 249q0 140 55.5 259t150.5 188t208 69q120 0 182.5 -72t62.5 -196q0 -140 -54.5 -259t-150 -188t-208.5 -69q-120 0 -183 72.5t-63 195.5zM983 264q0 -99 45.5 -158t131.5 -59q84 0 157 59.5t115.5 159 t42.5 212.5q0 99 -46 159.5t-131 60.5q-127 0 -221 -130.5t-94 -303.5z" />
<glyph unicode="&#x26;" horiz-adv-x="1079" d="M141 199q0 64 21.5 124t55.5 108t90.5 100t112 92.5t134.5 91.5q-93 173 -93 285q0 134 94 228t222 94q102 0 160 -51.5t58 -140.5q0 -55 -20.5 -108t-49.5 -93t-78 -84.5t-87.5 -72.5t-97.5 -68l220 -397q29 29 80 86t67 74l48 -43q-127 -137 -158 -167l145 -257h-86 l-121 207q-121 -110 -231 -168t-230 -58q-129 0 -192.5 60.5t-63.5 157.5zM225 225q0 -79 51 -128.5t148 -49.5q102 0 196 53.5t203 154.5l-231 406q-56 -37 -91 -61.5t-83.5 -61.5t-78 -69t-58.5 -72t-42.5 -83t-13.5 -89zM538 1018q0 -56 22 -114t67 -146q61 42 93.5 66 t76.5 62.5t66 70t38.5 74.5t16.5 90q0 65 -39.5 100.5t-105.5 35.5q-93 0 -164 -67t-71 -172z" />
<glyph unicode="'" horiz-adv-x="329" d="M320 920l80 383h77l-80 -383h-77z" />
<glyph unicode="(" horiz-adv-x="465" d="M186 207q0 319 118 640t323 555l23 -32q-169 -241 -276.5 -573.5t-107.5 -643.5q0 -218 47 -371l-36 -31q-91 200 -91 456z" />
<glyph unicode=")" horiz-adv-x="465" d="M60 -218q168 236 274.5 569.5t106.5 644.5q0 222 -44 372l37 34q89 -196 89 -454q0 -321 -119 -642.5t-322 -554.5z" />
<glyph unicode="*" horiz-adv-x="763" d="M359 1080l36 61l184 -102l41 266h78l-78 -266l229 104l11 -63l-238 -76l104 -203l-67 -47l-71 227l-164 -225l-50 45l188 203z" />
<glyph unicode="+" horiz-adv-x="850" d="M155 449l14 69h328l86 402h78l-86 -402h326l-15 -69h-326l-85 -404h-78l85 404h-327z" />
<glyph unicode="," horiz-adv-x="368" d="M30 -203l132 304h87l-160 -304h-59z" />
<glyph unicode="-" horiz-adv-x="336" d="M93 413l15 69h330l-15 -69h-330z" />
<glyph unicode="." horiz-adv-x="336" d="M128 34q0 25 17.5 44t42.5 19q18 0 28.5 -11t10.5 -28q0 -25 -17.5 -42.5t-43.5 -17.5q-18 0 -28 10t-10 26z" />
<glyph unicode="/" horiz-adv-x="621" d="M-7 -99l832 1534h87l-834 -1534h-85z" />
<glyph unicode="0" horiz-adv-x="968" d="M209 387q0 127 29 265q62 295 207.5 482.5t319.5 187.5q128 0 198 -109.5t70 -298.5q0 -124 -29 -262q-64 -295 -209 -483t-315 -188q-130 0 -200.5 109t-70.5 297zM294 397q0 -157 53.5 -249t149.5 -92q133 0 249.5 167.5t171.5 428.5q30 143 30 258q0 156 -51 246.5 t-147 90.5q-133 0 -252 -167t-174 -428q-30 -140 -30 -255z" />
<glyph unicode="1" horiz-adv-x="515" d="M235 0l255 1206l-108 -93l-39 52l165 138h84l-275 -1303h-82z" />
<glyph unicode="2" horiz-adv-x="839" d="M97 0l17 74l499 552q100 111 157.5 196.5t74.5 164.5q10 50 10 82q0 92 -53 135t-139 43q-100 0 -181 -62.5t-110 -195.5h-76q22 90 62.5 156.5t93 104t109.5 55t120 17.5q113 0 184 -56.5t71 -178.5q0 -69 -17.5 -132t-56.5 -126.5t-80 -116t-108 -127.5l-456 -511h536 l-15 -74h-642z" />
<glyph unicode="3" horiz-adv-x="746" d="M69 246l80 18q5 -92 59 -150t149 -58q112 0 203 83.5t123 236.5q13 69 13 104q0 106 -55.5 165t-145.5 59h-50l-2 74h58q110 0 185 96.5t75 212.5q0 72 -36.5 117t-110.5 45q-66 0 -121.5 -36.5t-92.5 -99.5l-72 23q43 84 123.5 135t179.5 51q103 0 158.5 -58t55.5 -156 q0 -133 -70.5 -235.5t-173.5 -120.5q75 -11 127 -76.5t52 -180.5q0 -56 -13 -121q-40 -190 -161.5 -291.5t-268.5 -101.5q-126 0 -196 70.5t-72 194.5z" />
<glyph unicode="4" horiz-adv-x="843" d="M106 277l17 75l691 951h87l-691 -951h403l74 352h78l-74 -352h126l-16 -75h-127l-58 -277h-78l58 277h-490z" />
<glyph unicode="5" horiz-adv-x="767" d="M35 -4l39 69q84 -13 209 -13q309 0 384 354q13 59 13 113q0 122 -87.5 187t-296.5 65l205 534h419l-32 -78h-339l-141 -387q355 0 355 -293q0 -69 -16 -145q-47 -224 -173 -322.5t-323 -98.5q-59 0 -216 15z" />
<glyph unicode="6" horiz-adv-x="893" d="M177 268q0 83 23 172t59.5 163t66 124t56.5 85l327 491h82l-357 -527q48 51 109.5 81.5t123.5 30.5q106 0 168 -73.5t62 -214.5q0 -84 -18 -168q-48 -225 -165.5 -338t-272.5 -113q-124 0 -194 71.5t-70 215.5zM263 279q0 -117 51.5 -174t141.5 -57q112 0 204 95.5 t133 288.5q17 87 17 149q0 119 -51 178.5t-132 59.5q-116 0 -214.5 -114.5t-131.5 -274.5q-18 -80 -18 -151z" />
<glyph unicode="7" horiz-adv-x="819" d="M130 0l756 1227h-506l2 76h607l-15 -76l-756 -1227h-88z" />
<glyph unicode="8" horiz-adv-x="927" d="M171 253q0 56 13 121q35 160 120.5 254.5t203.5 123.5q-49 12 -85 56t-36 128q0 39 10 88q31 145 126 221.5t218 76.5q105 0 167 -53.5t62 -158.5q0 -37 -11 -90q-14 -66 -40 -117t-58.5 -81t-64 -46.5t-64.5 -23.5q85 -20 134.5 -86t49.5 -173q0 -47 -15 -119 q-41 -193 -160.5 -293t-284.5 -100q-133 0 -209 68.5t-76 203.5zM255 272q0 -112 59 -168.5t157 -56.5q121 0 216.5 83t129.5 246q13 72 13 106q0 112 -59.5 168.5t-159.5 56.5q-120 0 -215.5 -84.5t-129.5 -246.5q-11 -61 -11 -104zM467 948q0 -82 45.5 -122t114.5 -40 q87 0 157.5 57.5t96.5 178.5q9 42 9 75q0 81 -45 120.5t-113 39.5q-86 0 -157.5 -57.5t-97.5 -177.5q-10 -47 -10 -74z" />
<glyph unicode="9" horiz-adv-x="893" d="M268 685q0 79 19 168q48 226 164 338t271 112q123 0 194 -71t71 -214q0 -84 -23 -173t-59.5 -163.5t-65.5 -122.5t-57 -86l-328 -492h-82l360 527q-104 -111 -233 -111q-106 0 -168.5 73.5t-62.5 214.5zM354 706q0 -119 51 -180t133 -61q115 0 212.5 114.5t132.5 275.5 q18 80 18 152q0 116 -51.5 172.5t-140.5 56.5q-111 0 -204 -95.5t-134 -287.5q-17 -87 -17 -147z" />
<glyph unicode=":" horiz-adv-x="325" d="M114 34q0 31 21.5 53.5t48.5 22.5q21 0 34 -13t13 -34q0 -28 -22 -51t-51 -23q-20 0 -32 13t-12 32zM279 810q0 31 22 53.5t49 22.5q21 0 34 -13.5t13 -34.5q0 -27 -23 -50t-50 -23q-20 0 -32.5 13t-12.5 32z" />
<glyph unicode=";" horiz-adv-x="381" d="M61 -207l131 300h87l-156 -300h-62zM335 812q0 31 21.5 53.5t47.5 22.5q21 0 34 -12.5t13 -33.5q0 -30 -22.5 -52.5t-50.5 -22.5q-19 0 -31 12.5t-12 32.5z" />
<glyph unicode="&#x3c;" horiz-adv-x="731" d="M151 447l13 63l691 352l-15 -71l-596 -313l463 -310l-14 -71z" />
<glyph unicode="=" horiz-adv-x="774" d="M106 220l13 69h639l-13 -69h-639zM186 590l15 69h637l-15 -69h-637z" />
<glyph unicode="&#x3e;" horiz-adv-x="731" d="M76 97l15 72l596 311l-464 311l15 71l542 -350l-13 -63z" />
<glyph unicode="?" horiz-adv-x="772" d="M279 34q0 29 22 51.5t49 22.5q21 0 34 -13.5t13 -33.5q0 -29 -22.5 -51.5t-50.5 -22.5q-21 0 -33 13t-12 34zM279 1020q44 150 144 226t230 76q106 0 171.5 -57.5t65.5 -162.5q0 -37 -9 -82q-14 -68 -49 -129.5t-77.5 -105.5t-92 -92.5t-92 -90t-76.5 -98.5t-47 -119 l-26 -128h-82l28 130q13 62 44 119.5t70 102.5t83.5 88.5t86 85.5t75.5 85.5t54.5 97t20.5 112.5q0 77 -43.5 122.5t-120.5 45.5q-91 0 -168 -59.5t-108 -166.5h-82z" />
<glyph unicode="@" horiz-adv-x="1148" d="M143 421q0 79 19 167q31 145 103 269t166.5 207t204.5 129.5t219 46.5q113 0 204 -45.5t147 -139.5t56 -223q0 -122 -46 -246t-131.5 -210.5t-185.5 -86.5q-111 0 -111 109q0 28 1 34q-46 -73 -105 -107.5t-120 -34.5q-75 0 -119.5 45t-44.5 132q0 111 55 221.5t148 183 t194 72.5q81 0 119.5 -45.5t38.5 -123.5q0 -64 -16.5 -120.5t-35.5 -90t-35.5 -73.5t-16.5 -74q0 -63 69 -63q73 0 136.5 74.5t97.5 182.5t34 214q0 167 -96 259.5t-247 92.5q-132 0 -258 -72t-222 -208t-132 -309q-19 -97 -19 -154q0 -188 110 -290.5t283 -102.5l-13 -67 q-206 0 -328.5 119t-122.5 328zM471 477q0 -59 29 -91t85 -32q60 0 117.5 40t96.5 101t63 133.5t24 138.5q0 114 -104 114q-76 0 -149 -59.5t-117.5 -153.5t-44.5 -191z" />
<glyph unicode="A" horiz-adv-x="1057" d="M52 0l713 1303h80l162 -1303h-84l-48 410h-518l-217 -410h-88zM395 478h473l-82 728z" />
<glyph unicode="B" horiz-adv-x="930" d="M155 4l275 1296q146 22 253 22q276 0 276 -209q0 -144 -75 -254t-163 -124q210 -29 210 -258q0 -60 -13 -125q-80 -371 -471 -371q-113 0 -292 23zM246 65q177 -17 219 -17q307 0 371 306q13 72 13 108q0 107 -59 165t-174 58h-238zM393 754h210q119 0 196.5 101.5 t77.5 239.5q0 82 -49 120t-152 38q-113 0 -181 -15z" />
<glyph unicode="C" horiz-adv-x="979" d="M207 391q0 113 28 244q68 321 233.5 504t404.5 183q166 0 283 -78l-39 -62q-47 31 -118 50t-139 19q-84 0 -159 -31t-134 -86t-107.5 -132.5t-83 -168t-56.5 -194.5q-26 -125 -26 -228q0 -171 76 -265t231 -94q143 0 295 65l3 -65q-153 -71 -320 -71q-186 0 -279 106.5 t-93 303.5z" />
<glyph unicode="D" horiz-adv-x="1089" d="M155 0l275 1300q172 22 287 22q437 0 437 -421q0 -113 -29 -249q-144 -671 -693 -671q-168 0 -277 19zM249 67q127 -15 224 -15q224 0 367 160.5t201 439.5q26 125 26 225q0 178 -83 275t-258 97q-132 0 -229 -16z" />
<glyph unicode="E" horiz-adv-x="895" d="M155 0l275 1303h633l-15 -70h-551l-110 -520h492l-15 -71h-492l-121 -569h551l-14 -73h-633z" />
<glyph unicode="F" horiz-adv-x="802" d="M155 0l275 1303h594l-15 -70h-512l-113 -539h452l-15 -70h-452l-133 -624h-81z" />
<glyph unicode="G" horiz-adv-x="1159" d="M214 454q0 92 22 199q43 200 150 353t254.5 234.5t312.5 81.5q191 0 324 -110l-39 -67q-119 102 -288 102q-220 0 -397 -165t-233 -432q-20 -100 -20 -181q0 -196 105.5 -304.5t288.5 -108.5q137 0 278 67l104 493h-255l15 67h337l-130 -607q-72 -44 -172.5 -69.5 t-198.5 -25.5q-212 0 -335 124t-123 349z" />
<glyph unicode="H" horiz-adv-x="1072" d="M153 0l275 1303h82l-125 -590h602l125 590h83l-275 -1303h-84l136 640h-601l-136 -640h-82z" />
<glyph unicode="I" horiz-adv-x="366" d="M155 0l275 1303h82l-276 -1303h-81z" />
<glyph unicode="J" horiz-adv-x="709" d="M13 56l35 65q92 -69 216 -69t193 75.5t105 241.5l198 934h80l-200 -940q-43 -199 -130.5 -290.5t-245.5 -91.5q-68 0 -139 22t-112 53z" />
<glyph unicode="K" horiz-adv-x="871" d="M155 0l275 1303h82l-127 -594l574 594h93l-588 -610l351 -693h-96l-341 674l-142 -674h-81z" />
<glyph unicode="L" horiz-adv-x="672" d="M153 0l275 1303h82l-261 -1229h436l-15 -74h-517z" />
<glyph unicode="M" horiz-adv-x="1379" d="M155 0l275 1303h99l178 -1208l697 1208h97l-276 -1303h-74l245 1164l-664 -1164h-82l-175 1162l-246 -1162h-74z" />
<glyph unicode="N" horiz-adv-x="1102" d="M153 0l275 1303h80l389 -1163l248 1163h80l-275 -1303h-81l-389 1165l-247 -1165h-80z" />
<glyph unicode="O" horiz-adv-x="1275" d="M216 452q0 96 22 200q62 294 250.5 482t429.5 188q196 0 306.5 -129t110.5 -346q0 -94 -22 -195q-63 -294 -252.5 -482.5t-427.5 -188.5q-197 0 -307 128t-110 343zM303 467q0 -188 92 -299.5t255 -111.5q133 0 252 77t203 212.5t120 306.5q21 105 21 182 q0 188 -90.5 300.5t-252.5 112.5q-201 0 -362.5 -167t-216.5 -428q-21 -105 -21 -185z" />
<glyph unicode="P" horiz-adv-x="895" d="M151 0l273 1296q156 26 280 26q165 0 239.5 -64t74.5 -191q0 -57 -14 -132q-80 -389 -457 -389q-105 0 -197 11l-117 -557h-82zM367 633q103 -13 188 -13q153 0 241 76.5t122 234.5q13 59 13 112q0 204 -233 204q-97 0 -205 -16z" />
<glyph unicode="Q" horiz-adv-x="1293" d="M218 465q0 87 20 187q62 294 250.5 482t429.5 188q193 0 303 -127.5t110 -341.5q0 -139 -38 -271.5t-101 -234t-146 -174.5t-173 -102h335l-15 -71h-541q-206 0 -320 126t-114 339zM303 477q0 -185 92.5 -294.5t257.5 -109.5q114 0 222.5 60.5t190 161.5t131 243 t49.5 296q0 188 -90.5 300.5t-252.5 112.5q-201 0 -362.5 -167t-216.5 -428q-21 -99 -21 -175z" />
<glyph unicode="R" horiz-adv-x="916" d="M153 0l273 1296q156 26 285 26q162 0 237.5 -65t75.5 -192q0 -187 -84.5 -322t-230.5 -177l121 -566h-91l-110 549q-36 -3 -76 -3q-89 0 -201 11l-117 -557h-82zM369 631q124 -15 214 -15q134 0 220.5 82t119.5 235q13 72 13 106q0 103 -55.5 156.5t-163.5 53.5 q-132 0 -220 -13z" />
<glyph unicode="S" horiz-adv-x="763" d="M71 28l28 67q122 -43 244 -43q91 0 166 38t123 118.5t48 189.5q0 56 -21.5 101.5t-56.5 77t-76.5 59t-83.5 55.5t-77 60.5t-56.5 80t-21.5 106.5q0 170 106 277t294 107q129 0 253 -28l-20 -67q-142 26 -229 26q-142 0 -231 -77.5t-89 -214.5q0 -52 22 -93.5t57 -70 t77 -55t84 -55t77 -62.5t57 -85.5t22 -116.5q0 -44 -11 -105q-35 -165 -144.5 -251t-278.5 -86q-139 0 -262 47z" />
<glyph unicode="T" horiz-adv-x="791" d="M277 1233l15 70h760l-15 -70h-339l-260 -1233h-84l260 1233h-337z" />
<glyph unicode="U" horiz-adv-x="1038" d="M212 270q0 75 19 164l184 869h86l-184 -867q-17 -87 -17 -146q0 -238 229 -238q294 0 376 384l184 867h86l-185 -869q-96 -453 -476 -453q-302 0 -302 289z" />
<glyph unicode="V" horiz-adv-x="902" d="M315 1303h89l69 -1193l577 1193h89l-647 -1303h-81z" />
<glyph unicode="W" horiz-adv-x="1431" d="M315 1303h104v-1210l527 1210h106v-1210l523 1210h95l-590 -1303h-110v1195l-521 -1195h-97z" />
<glyph unicode="X" horiz-adv-x="940" d="M82 0l486 668l-211 635h90l177 -568l422 568h90l-481 -635l205 -668h-89l-175 600l-425 -600h-89z" />
<glyph unicode="Y" horiz-adv-x="906" d="M330 1303h91l160 -707l456 707h91l-523 -789l-108 -514h-84l108 514z" />
<glyph unicode="Z" horiz-adv-x="748" d="M32 0l15 74l826 1159h-566l15 70h661l-15 -70l-828 -1159h597l-15 -74h-690z" />
<glyph unicode="[" horiz-adv-x="404" d="M45 -287l348 1644h192l-13 -61h-114l-322 -1523h113l-13 -60h-191z" />
<glyph unicode="\" horiz-adv-x="407" d="M223 1322h82l168 -1359h-82z" />
<glyph unicode="]" horiz-adv-x="404" d="M45 -287l13 60h111l323 1523h-112l13 61h192l-349 -1644h-191z" />
<glyph unicode="^" d="M274 773l419 460l225 -460l-73 -51l-177 395l-344 -395z" />
<glyph unicode="_" horiz-adv-x="707" d="M-15 -71l15 71h707l-16 -71h-706z" />
<glyph unicode="`" horiz-adv-x="268" d="M350 1629h89l108 -255h-67z" />
<glyph unicode="a" horiz-adv-x="871" d="M173 246q0 76 22 180q98 462 447 462q82 0 152.5 -21.5t115.5 -51.5l-173 -815h-72l41 199q-51 -101 -133 -159.5t-178 -58.5q-100 0 -161 63.5t-61 201.5zM257 266q0 -114 46 -165t121 -51q106 0 196.5 92t124.5 253l78 376q-94 48 -196 48q-25 0 -46 -2.5t-52 -11.5 t-56.5 -25t-55.5 -45.5t-54.5 -70t-47.5 -101.5t-39 -137q-19 -89 -19 -160z" />
<glyph unicode="b" horiz-adv-x="867" d="M153 37l277 1304h78l-143 -674q54 104 135 162.5t178 58.5q208 0 208 -249q0 -81 -22 -190q-101 -468 -432 -468q-76 0 -156 18.5t-123 37.5zM242 89q115 -39 210 -39q39 0 72.5 8.5t72.5 34.5t71 67.5t61.5 113.5t50.5 167q21 97 21 173q0 205 -159 205q-108 0 -196 -91 t-122 -253z" />
<glyph unicode="c" horiz-adv-x="772" d="M177 268q0 80 18 160q46 215 164 337.5t289 122.5q120 0 212 -63l-41 -58q-78 52 -180 52q-139 0 -231.5 -108t-128.5 -281q-16 -73 -16 -140q0 -112 53 -176t157 -64q99 0 210 51l8 -62q-114 -58 -242 -58q-137 0 -204.5 74.5t-67.5 212.5z" />
<glyph unicode="d" horiz-adv-x="880" d="M168 244q0 81 22 188q25 118 66.5 206t83.5 134.5t93.5 74t88 34.5t76.5 7q72 0 134.5 -23.5t94.5 -50.5l113 527h78l-284 -1341h-73l45 214q-56 -110 -138.5 -171.5t-180.5 -61.5q-99 0 -159 62.5t-60 200.5zM251 264q0 -113 47 -163.5t121 -50.5q106 0 196 92t124 253 l75 352q-99 72 -213 72q-247 0 -329 -387q-21 -91 -21 -168z" />
<glyph unicode="e" horiz-adv-x="830" d="M177 268q0 66 17 149q46 218 172.5 344.5t300.5 126.5q111 0 163.5 -50.5t52.5 -135.5q0 -41 -8 -73q-68 -327 -616 -327v-23q0 -113 58 -173.5t171 -60.5q129 0 279 67v-54q-61 -30 -145 -53.5t-166 -23.5q-142 0 -210.5 76.5t-68.5 210.5zM263 357q539 3 539 328 q0 66 -36 104t-113 38q-124 0 -230 -103t-149 -305q-11 -58 -11 -62z" />
<glyph unicode="f" horiz-adv-x="422" d="M-181 -361l25 67q53 -11 100 -11q79 0 122.5 61.5t73.5 202.5l178 840h-113l13 67h113l43 199q39 180 105 255.5t182 75.5q40 0 115 -11l-24 -67q-53 11 -100 11q-80 0 -124 -61.5t-74 -202.5l-43 -199h179l-13 -67h-179l-178 -840q-39 -180 -105 -255.5t-180 -75.5 q-41 0 -116 11z" />
<glyph unicode="g" horiz-adv-x="871" d="M32 -326l28 65q157 -46 275 -46q123 0 204.5 64t115.5 223l45 206q-51 -95 -131.5 -150t-173.5 -55q-100 0 -161 63.5t-61 201.5q0 76 22 180q98 462 447 462q82 0 152.5 -21.5t115.5 -51.5l-93 -431h2l-85 -403q-21 -98 -60 -168t-92.5 -109.5t-116 -57.5t-139.5 -18 q-149 0 -294 46zM257 266q0 -114 46 -165t121 -51q104 0 191.5 87t125.5 241l82 393q-94 48 -196 48q-25 0 -46 -2.5t-52 -11.5t-56.5 -25t-55.5 -45.5t-54.5 -70t-47.5 -101.5t-39 -137q-19 -89 -19 -160z" />
<glyph unicode="h" d="M147 0l292 1378h79l-146 -684q40 81 113 137.5t176 56.5q203 0 203 -214q0 -45 -17 -136l-113 -538h-79l114 538q13 62 13 115q0 168 -158 168q-105 0 -182 -78.5t-111 -237.5l-106 -505h-78z" />
<glyph unicode="i" horiz-adv-x="413" d="M171 89q0 38 15 116l140 661h78l-138 -656q-13 -59 -13 -96t15 -53t49 -16q19 0 35 5l-6 -59q-25 -10 -67 -10q-57 0 -82.5 25.5t-25.5 82.5zM372 1098q0 24 17 43t39 19q17 0 27 -10.5t10 -26.5q0 -25 -17 -42.5t-40 -17.5q-16 0 -26 10t-10 25z" />
<glyph unicode="j" horiz-adv-x="383" d="M-91 -343l26 66q53 -10 82 -10q44 0 74.5 44.5t51.5 141.5l205 967h80l-205 -968q-29 -134 -81.5 -194t-134.5 -60q-42 0 -98 13zM393 1100q0 23 18 41.5t40 18.5q16 0 25.5 -10t9.5 -25q0 -26 -16 -44t-40 -18q-16 0 -26.5 10.5t-10.5 26.5z" />
<glyph unicode="k" horiz-adv-x="761" d="M147 0l292 1378h77l-190 -896l469 386h97l-490 -408l307 -460h-100l-292 443l-94 -443h-76z" />
<glyph unicode="l" horiz-adv-x="411" d="M168 91q0 53 16 123l248 1164h76l-247 -1164q-13 -59 -13 -97t15.5 -54t49.5 -16q19 0 33 5l-3 -61q-28 -10 -69 -10q-55 0 -80.5 26.5t-25.5 83.5z" />
<glyph unicode="m" horiz-adv-x="1329" d="M147 0l183 866h78l-30 -147q31 72 105 120.5t170 48.5q97 0 138 -49.5t41 -127.5q0 -29 -2 -44q37 101 116.5 161t189.5 60q190 0 190 -197q0 -64 -23 -175l-108 -516h-76l108 516q20 97 20 158q0 76 -33 111.5t-110 35.5q-221 0 -285 -305l-108 -516h-78l108 514 q20 94 20 156q0 77 -33.5 114t-107.5 37q-109 0 -181 -76.5t-104 -225.5l-110 -519h-78z" />
<glyph unicode="n" d="M147 0l183 866h74l-37 -175q38 79 118 138t182 59q197 0 197 -212q0 -50 -15 -130l-115 -546h-79l112 532q13 65 13 116q0 171 -154 171q-102 0 -183 -80.5t-115 -239.5l-105 -499h-76z" />
<glyph unicode="o" horiz-adv-x="927" d="M181 290q0 70 16 146q43 202 164.5 327t290.5 125q135 0 206 -82.5t71 -224.5q0 -163 -63.5 -301t-172 -218.5t-235.5 -80.5q-136 0 -206.5 83.5t-70.5 225.5zM263 309q0 -119 54 -190t156 -71q98 0 184.5 71.5t137 190.5t50.5 254q0 117 -53 186t-155 69 q-99 0 -186 -70.5t-137.5 -188.5t-50.5 -251z" />
<glyph unicode="p" horiz-adv-x="871" d="M71 -354l260 1223h71l-45 -212q55 110 136 170.5t175 60.5q101 0 160.5 -61t59.5 -198q0 -79 -22 -186q-25 -120 -66.5 -208.5t-83 -135.5t-92.5 -75.5t-87 -35.5t-75 -7q-70 0 -130.5 23t-96.5 50l-88 -408h-76zM248 117q105 -67 210 -67q36 0 68.5 8.5t71 34.5 t70.5 67.5t62 112.5t50 165q21 94 21 171q0 112 -44.5 161t-116.5 49q-106 0 -194 -91.5t-122 -252.5z" />
<glyph unicode="q" horiz-adv-x="869" d="M166 240q0 88 24 192q25 118 66 206t82 134.5t92 74t87 34.5t75 7q69 0 130 -23t93 -51l14 54h78l-261 -1222h-73l120 563q-55 -109 -135.5 -168.5t-175.5 -59.5q-98 0 -157 61t-59 198zM251 261q0 -112 44.5 -161.5t117.5 -49.5q103 0 192 92t123 253l74 352 q-99 72 -208 72q-35 0 -67.5 -8.5t-71.5 -34t-71 -67t-62 -112.5t-50 -165q-21 -94 -21 -171z" />
<glyph unicode="r" horiz-adv-x="603" d="M147 0l183 866h72l-35 -172q34 82 104.5 138t152.5 56q57 0 98 -24l-33 -67q-37 20 -91 20q-91 0 -163.5 -82.5t-108.5 -252.5l-103 -482h-76z" />
<glyph unicode="s" horiz-adv-x="646" d="M80 4l21 59q111 -20 188 -20q98 0 168 57t70 170q0 37 -16 65t-41.5 45t-56.5 31.5t-61.5 30.5t-56 36t-41.5 53.5t-16 77.5q0 34 8 69q25 118 96 164t198 46q89 0 181 -15l-23 -63q-80 15 -162 15q-218 0 -218 -194q0 -35 16 -61.5t41.5 -43.5t56 -31.5t61.5 -31 t56.5 -37t41.5 -55t16 -79.5q0 -151 -88 -231t-230 -80q-88 0 -209 23z" />
<glyph unicode="t" horiz-adv-x="536" d="M214 110q0 58 26 171l110 518h-112l13 67h114l74 227h49l-49 -227h175l-13 -67h-175l-111 -520q-19 -82 -19 -134q0 -48 20.5 -70.5t68.5 -22.5q36 0 97 21l-4 -66q-71 -26 -128 -26q-74 0 -105 32.5t-31 96.5z" />
<glyph unicode="u" horiz-adv-x="867" d="M190 201q0 60 19 153l108 512h76l-108 -512q-17 -77 -17 -123v-9q0 -172 156 -172q106 0 183.5 74.5t111.5 229.5l108 512h76l-182 -866h-73l33 164q-36 -76 -111.5 -129.5t-176.5 -53.5q-203 0 -203 220z" />
<glyph unicode="v" horiz-adv-x="772" d="M246 866h82l74 -790l408 790h82l-462 -866h-87z" />
<glyph unicode="w" horiz-adv-x="1212" d="M246 866h84l39 -790l378 790h82l42 -790l378 790h82l-432 -866h-85l-43 773l-373 -773h-85z" />
<glyph unicode="x" horiz-adv-x="755" d="M50 0l376 441l-178 425h85l151 -360l302 360h87l-357 -425l190 -441h-82l-166 378l-326 -378h-82z" />
<glyph unicode="y" horiz-adv-x="882" d="M74 -238l38 50q28 -37 53.5 -60t72.5 -41t108 -18q69 0 127.5 22.5t109 82t69.5 152.5l44 214q-36 -76 -111.5 -129.5t-176.5 -53.5q-203 0 -203 220q0 65 18 153l108 512h77l-108 -512q-17 -77 -17 -123v-9q0 -172 156 -172q106 0 183.5 74.5t111.5 229.5l108 512h76 l-194 -916q-36 -168 -137 -245t-248 -77q-94 0 -164.5 34.5t-100.5 99.5z" />
<glyph unicode="z" horiz-adv-x="685" d="M73 0l13 67l577 732h-408l13 67h503l-13 -67l-577 -732h433l-13 -67h-528z" />
<glyph unicode="{" horiz-adv-x="551" d="M205 473l13 58q147 42 201 292l52 238q7 34 16.5 64t26.5 64.5t39 58.5t55 40.5t73 16.5h43l-13 -54q-118 -3 -158 -190l-47 -212q-12 -53 -25.5 -94.5t-38.5 -92.5t-66 -92t-95 -69q95 -62 95 -205q0 -56 -17 -141l-44 -213q-10 -46 -10 -82q0 -105 88 -108l-11 -54h-43 q-117 0 -117 142q0 52 11 102l50 239q15 68 15 122q0 139 -93 170z" />
<glyph unicode="|" horiz-adv-x="424" d="M108 -311l354 1666h78l-354 -1666h-78z" />
<glyph unicode="}" horiz-adv-x="551" d="M41 -302l11 54q120 6 160 190l45 213q11 51 24.5 93t39 92t67 91.5t96.5 69.5q-97 63 -97 206q0 57 17 142l47 212q4 20 9 80q0 107 -89 110l13 54h40q118 0 118 -141q0 -56 -11 -103l-53 -238q-14 -64 -14 -123q0 -137 95 -169l-13 -58q-149 -43 -203 -292l-51 -239 q-9 -43 -23 -81t-38 -77t-62.5 -62.5t-86.5 -23.5h-41z" />
<glyph unicode="~" horiz-adv-x="793" d="M143 395q105 147 222 147q35 0 71 -17.5t61.5 -38.5t60.5 -38.5t68 -17.5q78 0 145 101l50 -28q-102 -147 -225 -147q-33 0 -67 17.5t-59 38t-59 38t-67 17.5q-76 0 -150 -100z" />
<glyph unicode="&#xa0;" horiz-adv-x="327" d="M89 413l15 69h330l-15 -69h-330z" />
<glyph unicode="&#xa1;" horiz-adv-x="463" d="M117 -335l164 773h84l-164 -773h-84zM292 557q0 27 22.5 48.5t48.5 21.5q21 0 34 -13t13 -33q0 -29 -21.5 -51t-49.5 -22q-21 0 -34 14t-13 35z" />
<glyph unicode="&#xa2;" horiz-adv-x="791" d="M171 268q0 75 19 160q43 202 149.5 322.5t263.5 135.5l26 125h77l-26 -125q95 -9 175 -61l-41 -58q-78 52 -181 52q-139 0 -231 -107.5t-128 -281.5q-17 -77 -17 -140q0 -112 53 -176t157 -64q101 0 211 51l7 -62q-87 -46 -197 -56l-26 -115h-77l26 115q-240 16 -240 285 z" />
<glyph unicode="&#xa3;" horiz-adv-x="847" d="M89 0l13 63q83 46 140 102t91.5 127t53 143t30.5 172h-182l14 71h174q8 147 31.5 257.5t59 184t86.5 119t109.5 64.5t132.5 19q62 0 188 -26l-25 -63q-123 18 -163 18q-116 0 -191 -71t-109 -234q-19 -91 -32 -268h251l-14 -71h-244q-14 -134 -21 -166 q-9 -43 -27.5 -89.5t-49 -100t-79 -104t-108.5 -84.5h570l-13 -63h-686z" />
<glyph unicode="&#xa4;" horiz-adv-x="925" d="M110 84l113 123q-52 73 -52 188q0 126 51.5 245.5t134.5 191.5l-61 125l52 37l63 -121q102 63 220 63q122 0 194 -63l115 121l37 -37l-113 -125q50 -74 50 -190q0 -126 -51 -244.5t-133 -190.5l61 -123l-52 -37l-65 119q-95 -64 -220 -64q-120 0 -195 64l-112 -119z M255 411q0 -110 55.5 -176t158.5 -66q98 0 182 62.5t132.5 168t48.5 226.5q0 111 -55 176.5t-159 65.5q-98 0 -182 -62.5t-132.5 -168t-48.5 -226.5z" />
<glyph unicode="&#xa5;" horiz-adv-x="709" d="M86 300l15 71h290l39 184h-289l15 69h268l-130 668h90l109 -627l376 627h92l-412 -668h272l-15 -69h-294l-39 -184h294l-15 -71h-294l-63 -300h-82l63 300h-290z" />
<glyph unicode="&#xa6;" horiz-adv-x="424" d="M119 -263l134 632h77l-135 -632h-76zM307 626l144 674h76l-143 -674h-77z" />
<glyph unicode="&#xa7;" horiz-adv-x="644" d="M67 -60l22 56q117 -20 201 -20q91 0 157.5 58.5t66.5 172.5q0 52 -30 86t-72 53t-84.5 40t-72.5 61.5t-30 101.5q0 137 70.5 208.5t188.5 89.5l-37 18.5t-33 19t-32.5 25t-23.5 30t-18 41t-5 50.5q0 33 9 75q25 119 96.5 167.5t190.5 48.5q99 0 184 -17l-20 -58 q-102 17 -169 17q-211 0 -211 -203q0 -44 21.5 -75.5t53 -48t69 -35.5t69 -38t53 -56.5t21.5 -88.5q0 -121 -66.5 -201t-173.5 -105q63 -32 96.5 -70t33.5 -108q0 -155 -91 -237t-233 -82q-98 0 -201 24zM303 581q0 -77 69 -123q209 12 246 182q6 26 6 49q0 66 -52 108 q-20 -16 -57.5 -29.5t-71.5 -24.5t-67 -28.5t-53 -51t-20 -82.5z" />
<glyph unicode="&#xa8;" horiz-adv-x="390" d="M344 1415q0 25 19.5 44t40.5 19q18 0 29.5 -11t11.5 -28q0 -26 -19 -45.5t-44 -19.5q-15 0 -26.5 12.5t-11.5 28.5zM551 1415q0 25 20 44t42 19q17 0 27 -10.5t10 -28.5q0 -24 -18 -44.5t-42 -20.5q-16 0 -27.5 12t-11.5 29z" />
<glyph unicode="&#xa9;" horiz-adv-x="1226" d="M168 488q0 161 64.5 317t167 269.5t234.5 183t262 69.5q134 0 234 -68t151.5 -184t51.5 -263q0 -149 -45.5 -284t-121.5 -234.5t-171 -173.5t-196 -111t-196 -37q-133 0 -233.5 71t-151 187t-50.5 258zM223 493q0 -130 45 -235.5t135 -169.5t211 -64q88 0 181 35.5 t178.5 105t153 163t108 220t40.5 264.5q0 206 -104.5 335.5t-286.5 129.5q-120 0 -240.5 -65t-212.5 -171t-150 -251.5t-58 -296.5zM495 555q0 102 47.5 197.5t126.5 154.5t165 59q95 0 149 -69l-60 -54q-40 53 -100 53q-78 0 -146.5 -75t-91.5 -181q-8 -35 -8 -74 q0 -80 36.5 -129.5t101.5 -49.5q60 0 127 52l31 -54q-82 -68 -177 -68q-93 0 -147 66.5t-54 171.5z" />
<glyph unicode="&#xaa;" horiz-adv-x="646" d="M242 894q0 46 11 104q34 155 120.5 239.5t194.5 84.5q74 0 120 -44t51 -113l28 138h78l-128 -609h-78l28 133q-40 -69 -101 -110t-130 -41q-89 0 -141.5 56.5t-52.5 161.5zM320 910q0 -82 39.5 -122.5t104.5 -40.5q95 0 171 93.5t76 243.5q0 80 -38 123.5t-103 43.5 q-81 0 -147 -64.5t-92 -188.5q-11 -53 -11 -88z" />
<glyph unicode="&#xab;" horiz-adv-x="832" d="M199 441l341 376l48 -35l-290 -341l145 -340l-63 -36zM503 441l340 378l47 -37l-290 -341l147 -340l-64 -36z" />
<glyph unicode="&#xac;" horiz-adv-x="858" d="M190 620l15 65h746l-95 -443h-70l80 378h-676z" />
<glyph unicode="&#xad;" horiz-adv-x="327" d="M89 413l15 69h330l-15 -69h-330z" />
<glyph unicode="&#xae;" horiz-adv-x="1226" d="M168 484q0 167 65.5 325t168.5 270t233.5 180t258.5 68q202 0 319.5 -141.5t117.5 -366.5q0 -150 -45.5 -286.5t-121 -236.5t-170 -174.5t-196 -112t-195.5 -37.5q-132 0 -232 69t-151.5 184.5t-51.5 258.5zM225 486q0 -131 45 -234.5t134 -165.5t210 -62q98 0 198 42 t187.5 118.5t155.5 194t98 256.5q20 97 20 180q0 206 -104.5 334t-285.5 128q-119 0 -238 -63.5t-211.5 -168.5t-150.5 -253t-58 -306zM557 322l132 622q53 13 93 13q77 0 115.5 -41t38.5 -104q0 -65 -34.5 -124t-93.5 -88l37 -278h-61l-30 246q-55 0 -86 9l-54 -255h-57z M681 633q22 -6 38 -6q64 0 112 51.5t48 122.5q0 46 -27 74t-74 28q-15 0 -41 -4z" />
<glyph unicode="&#xaf;" horiz-adv-x="398" d="M346 1374l15 67h289l-15 -67h-289z" />
<glyph unicode="&#xb0;" horiz-adv-x="558" d="M326 1054q0 96 67.5 177.5t163.5 81.5q68 0 104.5 -46t36.5 -115q0 -97 -68 -176.5t-161 -79.5q-68 0 -105.5 45t-37.5 113zM344 1048q0 -67 36.5 -105t90.5 -38q75 0 142 71t67 186q0 67 -36 103t-89 36q-67 0 -125.5 -52t-77.5 -143q-8 -40 -8 -58z" />
<glyph unicode="&#xb1;" horiz-adv-x="858" d="M35 -132l15 71h734l-15 -71h-734zM155 449l14 69h328l86 402h78l-86 -402h326l-15 -69h-326l-82 -388h-78l82 388h-327z" />
<glyph unicode="&#xb2;" horiz-adv-x="582" d="M181 559l13 61l333 352q135 141 153 225q5 24 5 52q0 59 -33 86.5t-88 27.5q-62 0 -112.5 -39t-67.5 -121h-71q27 117 100 170t168 53q79 0 130.5 -38.5t51.5 -121.5q0 -84 -44 -161.5t-129 -164.5l-300 -320h356l-13 -61h-452z" />
<glyph unicode="&#xb3;" horiz-adv-x="515" d="M164 726l72 11q3 -57 37.5 -92.5t98.5 -35.5q82 0 147.5 69.5t65.5 192.5q0 68 -35 104t-92 36h-41v60h43q73 0 119.5 59.5t46.5 133.5q0 45 -23 74t-71 29q-42 0 -79 -24t-60 -64l-63 17q32 59 88.5 93.5t128.5 34.5q73 0 113 -39t40 -106q0 -86 -46.5 -152t-117.5 -77 q52 -7 86.5 -49t34.5 -117q0 -84 -28 -151.5t-73 -106.5t-96 -59.5t-101 -20.5q-95 0 -144 46.5t-51 133.5z" />
<glyph unicode="&#xb4;" horiz-adv-x="201" d="M303 1374l155 222h88l-185 -222h-58z" />
<glyph unicode="&#xb6;" horiz-adv-x="921" d="M279 847q0 188 121 322t281 134h254l-326 -1536h-62l313 1475h-112l-312 -1475h-60l173 819q-126 1 -198 71t-72 190z" />
<glyph unicode="&#xb7;" horiz-adv-x="346" d="M184 333q0 29 23 51t50 22q19 0 32.5 -13.5t13.5 -33.5q0 -28 -23 -50t-49 -22q-21 0 -34 13t-13 33z" />
<glyph unicode="&#xb8;" horiz-adv-x="284" d="M-56 -292l22 33q42 -17 77 -17q48 0 79 25.5t31 73.5q0 67 -82 67l70 97h41l-42 -58q38 -5 60 -27.5t22 -61.5q0 -79 -52.5 -118.5t-119.5 -39.5q-57 0 -106 26z" />
<glyph unicode="&#xb9;" horiz-adv-x="366" d="M283 559l164 770l-76 -61l-34 46l127 99h76l-183 -854h-74z" />
<glyph unicode="&#xba;" horiz-adv-x="858" d="M240 724q0 65 17 145q43 203 163 328t289 125q135 0 207.5 -83t72.5 -226q0 -67 -17 -144q-43 -202 -164.5 -328t-289.5 -126q-136 0 -207 83.5t-71 225.5zM322 743q0 -119 54 -190t156 -71q98 0 184.5 71.5t137.5 190.5t51 254q0 117 -53.5 186t-155.5 69 q-100 0 -187 -71t-137 -188.5t-50 -250.5z" />
<glyph unicode="&#xbb;" horiz-adv-x="832" d="M127 101l292 340l-147 341l63 37l183 -378l-343 -376zM428 101l294 340l-147 341l62 35l182 -376l-342 -376z" />
<glyph unicode="&#xbc;" horiz-adv-x="1334" d="M302 -84l780 1426h80l-778 -1426h-82zM309 449l164 770l-76 -61l-36 47l127 98h76l-180 -854h-75zM797 168l71 11q3 -57 37.5 -93t98.5 -36q82 0 147 69.5t65 193.5q0 68 -34.5 103.5t-92.5 35.5h-41v60h43q73 0 120.5 60.5t47.5 134.5q0 45 -23.5 73t-71.5 28 q-86 0 -140 -87l-61 16q30 59 87 94t129 35q73 0 112.5 -39t39.5 -106q0 -86 -46.5 -152t-115.5 -77q51 -7 86 -50.5t35 -119.5q0 -84 -29 -151t-74.5 -105.5t-96.5 -58.5t-100 -20q-95 0 -144 47t-49 134z" />
<glyph unicode="&#xbd;" horiz-adv-x="1370" d="M302 -84l780 1426h85l-780 -1426h-85zM309 449l164 770l-76 -61l-36 47l127 98h76l-180 -854h-75zM815 0l14 61l333 352q68 73 105 125.5t46 100.5q5 24 5 52q0 113 -121 113q-62 0 -112.5 -39t-67.5 -121h-71q27 117 101 170.5t169 53.5q79 0 129.5 -39t50.5 -122 q0 -84 -44 -161t-129 -164l-298 -321h356l-13 -61h-453z" />
<glyph unicode="&#xbe;" horiz-adv-x="1599" d="M236 616l71 11q3 -57 37.5 -92.5t98.5 -35.5q82 0 147 70t65 194q0 66 -34.5 102t-91.5 36h-41v60h43q73 0 120 60.5t47 134.5q0 45 -23.5 73t-71.5 28q-85 0 -139 -88l-62 17q32 59 89 93.5t129 34.5q73 0 112 -38t39 -105q0 -87 -46 -153.5t-116 -77.5q52 -7 86.5 -49 t34.5 -118q0 -84 -29 -151t-74.5 -106t-96.5 -59.5t-100 -20.5q-95 0 -143.5 46.5t-50.5 133.5zM521 -84l780 1426h82l-778 -1426h-84zM1044 184l14 62l251 497h67l-246 -497h261l128 609h71l-128 -609h83l-13 -62h-84l-39 -184h-70l39 184h-334z" />
<glyph unicode="&#xbf;" horiz-adv-x="772" d="M69 -173q0 37 9 82q12 58 37 108.5t56.5 88t66.5 72t70.5 68t66 68.5t54.5 81t35 98l26 125h83l-26 -125q-17 -78 -57.5 -144.5t-88.5 -114.5t-96 -93.5t-86.5 -103.5t-52.5 -123q-8 -40 -8 -59q0 -77 45.5 -123.5t122.5 -46.5q89 0 166.5 59.5t107.5 162.5h80 q-43 -147 -142.5 -221.5t-228.5 -74.5q-109 0 -174.5 55.5t-65.5 160.5zM516 814q0 28 22 51t50 23q20 0 32.5 -12.5t12.5 -33.5q0 -30 -22 -51.5t-49 -21.5q-21 0 -33.5 12.5t-12.5 32.5z" />
<glyph unicode="&#xc0;" horiz-adv-x="1057" d="M52 0l713 1303h80l162 -1303h-84l-48 410h-518l-217 -410h-88zM395 478h473l-82 728zM661 1629h89l108 -255h-67z" />
<glyph unicode="&#xc1;" horiz-adv-x="1057" d="M52 0l713 1303h80l162 -1303h-84l-48 410h-518l-217 -410h-88zM395 478h473l-82 728zM791 1374l155 222h87l-184 -222h-58z" />
<glyph unicode="&#xc2;" horiz-adv-x="1057" d="M52 0l713 1303h80l162 -1303h-84l-48 410h-518l-217 -410h-88zM395 478h473l-82 728zM631 1381l212 211h53l121 -211l-23 -7l-138 155l-206 -155z" />
<glyph unicode="&#xc3;" horiz-adv-x="1057" d="M52 0l713 1303h80l162 -1303h-84l-48 410h-518l-217 -410h-88zM395 478h473l-82 728zM663 1398q64 99 128 99q29 0 69 -34.5t63 -34.5q42 0 82 63l28 -16q-66 -99 -128 -99q-28 0 -68.5 35.5t-63.5 35.5q-19 0 -41 -19t-39 -48z" />
<glyph unicode="&#xc4;" horiz-adv-x="1057" d="M52 0l713 1303h80l162 -1303h-84l-48 410h-518l-217 -410h-88zM395 478h473l-82 728zM681 1415q0 25 19.5 44t40.5 19q18 0 29.5 -11t11.5 -28q0 -26 -19 -45.5t-44 -19.5q-15 0 -26.5 12.5t-11.5 28.5zM888 1415q0 25 20 44t42 19q17 0 27 -10.5t10 -28.5 q0 -24 -18 -44.5t-42 -20.5q-16 0 -27.5 12t-11.5 29z" />
<glyph unicode="&#xc5;" horiz-adv-x="1057" d="M52 0l713 1303h80l162 -1303h-84l-48 410h-518l-217 -410h-88zM395 478h473l-82 728zM696 1471q0 58 51.5 104.5t125.5 46.5q59 0 91 -29t32 -72q0 -8 -4 -26q-10 -52 -57.5 -90t-115.5 -38q-59 0 -91 29.5t-32 74.5zM754 1478q0 -29 18.5 -49t54.5 -20q53 0 82 34t29 71 q0 28 -18 46.5t-56 18.5q-49 0 -79.5 -33t-30.5 -68z" />
<glyph unicode="&#xc6;" horiz-adv-x="1509" d="M52 0l961 1303h663l-15 -70h-549l-110 -520h489l-15 -71h-489l-121 -569h549l-15 -73h-631l86 410h-416l-299 -410h-88zM492 478h377l153 717z" />
<glyph unicode="&#xc7;" horiz-adv-x="968" d="M197 391q0 113 28 244q68 321 234 504t405 183q166 0 283 -78l-39 -62q-47 31 -118 50t-139 19q-84 0 -159 -31t-134 -86t-107.5 -132.5t-83 -168t-56.5 -194.5q-26 -125 -26 -228q0 -171 76 -265t231 -94q142 0 294 65l4 -65q-131 -62 -285 -69l-39 -54q38 -5 60 -27.5 t22 -61.5q0 -79 -52 -118.5t-119 -39.5q-59 0 -108 26l22 33q43 -17 78 -17q48 0 79 25.5t31 73.5q0 67 -82 67l65 91q-183 3 -274 109t-91 301z" />
<glyph unicode="&#xc8;" horiz-adv-x="895" d="M155 0l275 1303h633l-15 -70h-551l-110 -520h492l-15 -71h-492l-121 -569h551l-14 -73h-633zM611 1629h89l108 -255h-67z" />
<glyph unicode="&#xc9;" horiz-adv-x="895" d="M155 0l275 1303h633l-15 -70h-551l-110 -520h492l-15 -71h-492l-121 -569h551l-14 -73h-633zM743 1374l154 222h88l-184 -222h-58z" />
<glyph unicode="&#xca;" horiz-adv-x="895" d="M155 0l275 1303h633l-15 -70h-551l-110 -520h492l-15 -71h-492l-121 -569h551l-14 -73h-633zM581 1381l212 211h52l121 -211l-22 -7l-138 155l-206 -155z" />
<glyph unicode="&#xcb;" horiz-adv-x="895" d="M155 0l275 1303h633l-15 -70h-551l-110 -520h492l-15 -71h-492l-121 -569h551l-14 -73h-633zM631 1415q0 25 19.5 44t40.5 19q18 0 29.5 -11t11.5 -28q0 -26 -19.5 -45.5t-44.5 -19.5q-15 0 -26 12t-11 29zM838 1415q0 25 19.5 44t41.5 19q17 0 27 -10.5t10 -28.5 q0 -25 -17.5 -45t-41.5 -20q-16 0 -27.5 12t-11.5 29z" />
<glyph unicode="&#xcc;" horiz-adv-x="366" d="M155 0l275 1303h82l-276 -1303h-81zM328 1629h89l108 -255h-67z" />
<glyph unicode="&#xcd;" horiz-adv-x="366" d="M155 0l275 1303h82l-276 -1303h-81zM458 1374l155 222h87l-184 -222h-58z" />
<glyph unicode="&#xce;" horiz-adv-x="366" d="M155 0l275 1303h82l-276 -1303h-81zM296 1381l212 211h52l121 -211l-22 -7l-138 155l-206 -155z" />
<glyph unicode="&#xcf;" horiz-adv-x="366" d="M155 0l275 1303h82l-276 -1303h-81zM346 1415q0 25 19.5 44t40.5 19q18 0 29.5 -11t11.5 -28q0 -26 -19 -45.5t-44 -19.5q-15 0 -26.5 12.5t-11.5 28.5zM553 1415q0 25 19.5 44t41.5 19q17 0 27.5 -10.5t10.5 -28.5q0 -24 -18 -44.5t-42 -20.5q-16 0 -27.5 12t-11.5 29z " />
<glyph unicode="&#xd0;" horiz-adv-x="1210" d="M276 0l139 657h-121l13 69h121l123 574q172 22 287 22q437 0 437 -421q0 -113 -29 -249q-144 -671 -693 -671q-168 0 -277 19zM371 67q127 -15 223 -15q224 0 367 160.5t201 439.5q26 125 26 225q0 178 -83 275t-258 97q-132 0 -229 -16l-108 -507h127l-13 -69h-127z" />
<glyph unicode="&#xd1;" horiz-adv-x="1139" d="M153 0l275 1303h80l389 -1163l248 1163h80l-275 -1303h-81l-389 1165l-247 -1165h-80zM713 1398q64 99 129 99q29 0 69 -34.5t63 -34.5q42 0 82 63l28 -16q-66 -99 -129 -99q-28 0 -68.5 35.5t-63.5 35.5q-19 0 -41 -19t-39 -48z" />
<glyph unicode="&#xd2;" horiz-adv-x="1271" d="M216 452q0 96 22 200q62 294 250.5 482t429.5 188q196 0 306.5 -129t110.5 -346q0 -94 -22 -195q-63 -294 -252.5 -482.5t-427.5 -188.5q-197 0 -307 128t-110 343zM303 467q0 -188 92 -299.5t255 -111.5q133 0 252 77t203 212.5t120 306.5q21 105 21 182 q0 188 -90.5 300.5t-252.5 112.5q-201 0 -362.5 -167t-216.5 -428q-21 -105 -21 -185zM767 1629h89l108 -255h-67z" />
<glyph unicode="&#xd3;" horiz-adv-x="1271" d="M216 452q0 96 22 200q62 294 250.5 482t429.5 188q196 0 306.5 -129t110.5 -346q0 -94 -22 -195q-63 -294 -252.5 -482.5t-427.5 -188.5q-197 0 -307 128t-110 343zM303 467q0 -188 92 -299.5t255 -111.5q133 0 252 77t203 212.5t120 306.5q21 105 21 182 q0 188 -90.5 300.5t-252.5 112.5q-201 0 -362.5 -167t-216.5 -428q-21 -105 -21 -185zM897 1374l155 222h87l-184 -222h-58z" />
<glyph unicode="&#xd4;" horiz-adv-x="1271" d="M216 452q0 96 22 200q62 294 250.5 482t429.5 188q196 0 306.5 -129t110.5 -346q0 -94 -22 -195q-63 -294 -252.5 -482.5t-427.5 -188.5q-197 0 -307 128t-110 343zM303 467q0 -188 92 -299.5t255 -111.5q133 0 252 77t203 212.5t120 306.5q21 105 21 182 q0 188 -90.5 300.5t-252.5 112.5q-201 0 -362.5 -167t-216.5 -428q-21 -105 -21 -185zM737 1381l213 211h52l121 -211l-23 -7l-137 155l-207 -155z" />
<glyph unicode="&#xd5;" horiz-adv-x="1271" d="M216 452q0 96 22 200q62 294 250.5 482t429.5 188q196 0 306.5 -129t110.5 -346q0 -94 -22 -195q-63 -294 -252.5 -482.5t-427.5 -188.5q-197 0 -307 128t-110 343zM303 467q0 -188 92 -299.5t255 -111.5q133 0 252 77t203 212.5t120 306.5q21 105 21 182 q0 188 -90.5 300.5t-252.5 112.5q-201 0 -362.5 -167t-216.5 -428q-21 -105 -21 -185zM769 1398q64 99 128 99q29 0 69.5 -34.5t63.5 -34.5q42 0 82 63l27 -16q-66 -99 -128 -99q-28 0 -68.5 35.5t-63.5 35.5q-19 0 -41 -19t-39 -48z" />
<glyph unicode="&#xd6;" horiz-adv-x="1271" d="M216 452q0 96 22 200q62 294 250.5 482t429.5 188q196 0 306.5 -129t110.5 -346q0 -94 -22 -195q-63 -294 -252.5 -482.5t-427.5 -188.5q-197 0 -307 128t-110 343zM303 467q0 -188 92 -299.5t255 -111.5q133 0 252 77t203 212.5t120 306.5q21 105 21 182 q0 188 -90.5 300.5t-252.5 112.5q-201 0 -362.5 -167t-216.5 -428q-21 -105 -21 -185zM788 1415q0 25 19 44t40 19q18 0 29.5 -11t11.5 -28q0 -26 -19 -45.5t-44 -19.5q-15 0 -26 12t-11 29zM994 1415q0 25 20 44t42 19q17 0 27 -10.5t10 -28.5q0 -24 -18 -44.5t-42 -20.5 q-16 0 -27.5 12t-11.5 29z" />
<glyph unicode="&#xd7;" horiz-adv-x="806" d="M86 127l370 353q-22 37 -68 110.5t-81 132.5t-63 115q1 3 10.5 11.5t11.5 10.5l24 19l224 -354l372 352l37 -41l-374 -356l220 -352q-8 -7 -17.5 -15.5t-16.5 -14t-18 -12.5l-222 352l-372 -354z" />
<glyph unicode="&#xd8;" horiz-adv-x="1271" d="M216 454q0 97 22 198q62 294 250.5 482t429.5 188q88 0 164 -30l76 138h78l-95 -170q94 -58 144 -165t50 -248q0 -94 -22 -195q-63 -294 -252.5 -482.5t-427.5 -188.5q-87 0 -175 34l-69 -129h-76l87 161q-89 58 -136.5 163.5t-47.5 243.5zM303 469q0 -235 138 -346 l602 1096q-60 28 -140 28q-201 0 -362.5 -167t-216.5 -428q-21 -91 -21 -183zM497 88q72 -32 153 -32q133 0 252 77t203 212.5t120 306.5q21 105 21 182q0 117 -37.5 208.5t-106.5 143.5z" />
<glyph unicode="&#xd9;" horiz-adv-x="1038" d="M212 270q0 75 19 164l184 869h86l-184 -867q-17 -87 -17 -146q0 -238 229 -238q294 0 376 384l184 867h86l-185 -869q-96 -453 -476 -453q-302 0 -302 289zM652 1629h89l108 -255h-67z" />
<glyph unicode="&#xda;" horiz-adv-x="1038" d="M212 270q0 75 19 164l184 869h86l-184 -867q-17 -87 -17 -146q0 -238 229 -238q294 0 376 384l184 867h86l-185 -869q-96 -453 -476 -453q-302 0 -302 289zM782 1374l154 222h88l-184 -222h-58z" />
<glyph unicode="&#xdb;" horiz-adv-x="1038" d="M212 270q0 75 19 164l184 869h86l-184 -867q-17 -87 -17 -146q0 -238 229 -238q294 0 376 384l184 867h86l-185 -869q-96 -453 -476 -453q-302 0 -302 289zM620 1381l212 211h52l121 -211l-22 -7l-138 155l-206 -155z" />
<glyph unicode="&#xdc;" horiz-adv-x="1038" d="M212 270q0 75 19 164l184 869h86l-184 -867q-17 -87 -17 -146q0 -238 229 -238q294 0 376 384l184 867h86l-185 -869q-96 -453 -476 -453q-302 0 -302 289zM670 1415q0 25 19.5 44t40.5 19q18 0 29.5 -11t11.5 -28q0 -26 -19.5 -45.5t-44.5 -19.5q-15 0 -26 12t-11 29z M877 1415q0 25 19.5 44t41.5 19q17 0 27.5 -10.5t10.5 -28.5q0 -24 -18 -44.5t-42 -20.5q-16 0 -27.5 12t-11.5 29z" />
<glyph unicode="&#xdd;" horiz-adv-x="906" d="M330 1303h91l160 -707l456 707h91l-523 -789l-108 -514h-84l108 514zM715 1374l154 222h88l-184 -222h-58z" />
<glyph unicode="&#xde;" horiz-adv-x="685" d="M112 0l275 1303h86l-63 -298q68 12 109 12q143 0 212.5 -66.5t69.5 -189.5q0 -54 -15 -132q-40 -185 -147 -286t-285 -101q-46 0 -105 11l-52 -253h-85zM266 330q46 -13 103 -13q131 0 214.5 81.5t114.5 230.5q13 72 13 106q0 100 -52.5 153.5t-157.5 53.5 q-55 0 -106 -13z" />
<glyph unicode="&#xdf;" horiz-adv-x="977" d="M147 0l220 1039q19 90 60 160.5t94 112t110 62.5t114 21q107 0 172.5 -66t65.5 -182q0 -137 -72 -255.5t-177 -176.5q45 -26 78 -51t70 -63.5t57 -89t20 -109.5q0 -174 -130.5 -288t-351.5 -114h-49l28 71h41q70 0 135.5 18.5t121 54.5t89.5 98t34 140q0 71 -45 134 t-136 126q-5 3 -16 10t-16 10.5t-13 9.5t-11 10.5t-6 10.5t-3 13q0 18 21.5 37t55 42.5t69 55t68 86.5t47.5 125q9 42 9 82q0 88 -46 139t-131 51q-38 0 -78 -15t-80 -46t-72.5 -89t-48.5 -135l-220 -1039h-78z" />
<glyph unicode="&#xe0;" horiz-adv-x="798" d="M134 140q0 41 7 69q33 152 161.5 216.5t391.5 66.5l36 169q5 25 5 54q0 58 -40 86t-129 28q-107 0 -259 -47v56q153 50 285 50q118 0 170.5 -35.5t52.5 -115.5q0 -33 -9 -78l-139 -659h-73l30 147q-47 -75 -127.5 -120.5t-176.5 -45.5q-186 0 -186 159zM216 155 q0 -114 136 -114q108 0 189.5 68t111.5 191l28 134q-223 -2 -328 -51.5t-130 -172.5q-7 -35 -7 -55zM469 1318h90l108 -255h-67z" />
<glyph unicode="&#xe1;" horiz-adv-x="798" d="M134 140q0 41 7 69q33 152 161.5 216.5t391.5 66.5l36 169q5 25 5 54q0 58 -40 86t-129 28q-107 0 -259 -47v56q153 50 285 50q118 0 170.5 -35.5t52.5 -115.5q0 -33 -9 -78l-139 -659h-73l30 147q-47 -75 -127.5 -120.5t-176.5 -45.5q-186 0 -186 159zM216 155 q0 -114 136 -114q110 0 193 72t110 200l26 121q-223 -2 -328 -51.5t-130 -172.5q-7 -35 -7 -55zM600 1063l152 222h88l-183 -222h-57z" />
<glyph unicode="&#xe2;" horiz-adv-x="798" d="M134 140q0 41 7 69q33 152 161.5 216.5t391.5 66.5l36 169q5 25 5 54q0 58 -40 86t-129 28q-107 0 -259 -47v56q153 50 285 50q118 0 170.5 -35.5t52.5 -115.5q0 -33 -9 -78l-139 -659h-73l30 147q-47 -75 -127.5 -120.5t-176.5 -45.5q-186 0 -186 159zM216 155 q0 -114 136 -114q108 0 189.5 68t111.5 191l28 134q-223 -2 -328 -51.5t-130 -172.5q-7 -35 -7 -55zM439 1071l213 210h52l121 -210l-23 -8l-137 155l-207 -155z" />
<glyph unicode="&#xe3;" horiz-adv-x="798" d="M134 140q0 41 7 69q33 152 161.5 216.5t391.5 66.5l36 169q5 25 5 54q0 58 -40 86t-129 28q-107 0 -259 -47v56q153 50 285 50q118 0 170.5 -35.5t52.5 -115.5q0 -33 -9 -78l-139 -659h-73l30 147q-47 -75 -127.5 -120.5t-176.5 -45.5q-186 0 -186 159zM216 155 q0 -114 136 -114q108 0 189.5 68t111.5 191l28 134q-223 -2 -328 -51.5t-130 -172.5q-7 -35 -7 -55zM473 1087q63 99 128 99q29 0 68.5 -34.5t62.5 -34.5q42 0 82 63l28 -16q-66 -99 -129 -99q-28 0 -68.5 35.5t-63.5 35.5q-38 0 -78 -67z" />
<glyph unicode="&#xe4;" horiz-adv-x="798" d="M134 140q0 41 7 69q33 152 161.5 216.5t391.5 66.5l36 169q5 25 5 54q0 58 -40 86t-129 28q-107 0 -259 -47v56q153 50 285 50q118 0 170.5 -35.5t52.5 -115.5q0 -33 -9 -78l-139 -659h-73l30 147q-47 -75 -127.5 -120.5t-176.5 -45.5q-186 0 -186 159zM216 155 q0 -114 136 -114q108 0 189.5 68t111.5 191l28 134q-223 -2 -328 -51.5t-130 -172.5q-7 -35 -7 -55zM490 1104q0 25 18.5 44t40.5 19q18 0 28.5 -11.5t10.5 -29.5q0 -25 -18.5 -44t-42.5 -19q-15 0 -26 12t-11 29zM696 1104q0 26 19.5 44.5t42.5 18.5q16 0 26.5 -11.5 t10.5 -29.5q0 -24 -18.5 -43.5t-41.5 -19.5q-16 0 -27.5 12t-11.5 29z" />
<glyph unicode="&#xe5;" horiz-adv-x="798" d="M134 140q0 41 7 69q33 152 161.5 216.5t391.5 66.5l36 169q5 25 5 54q0 58 -40 86t-129 28q-107 0 -259 -47v56q153 50 285 50q118 0 170.5 -35.5t52.5 -115.5q0 -33 -9 -78l-139 -659h-73l30 147q-47 -75 -127.5 -120.5t-176.5 -45.5q-186 0 -186 159zM216 155 q0 -114 136 -114q108 0 189.5 68t111.5 191l28 134q-223 -2 -328 -51.5t-130 -172.5q-7 -35 -7 -55zM506 1165q0 59 50.5 106t126.5 47q60 0 91.5 -28.5t31.5 -73.5q0 -17 -2 -24q-12 -52 -59.5 -90.5t-115.5 -38.5q-58 0 -90.5 29t-32.5 73zM566 1173q0 -28 18.5 -47.5 t54.5 -19.5q51 0 81 33t30 69q0 29 -18.5 48t-57.5 19q-50 0 -79 -33t-29 -69z" />
<glyph unicode="&#xe6;" horiz-adv-x="1353" d="M140 140q0 39 7 67q32 147 159 207t394 63l24 111q13 59 13 108q0 67 -36 98t-122 31q-121 0 -266 -47l4 58q156 52 281 52q112 0 163 -40t56 -129q62 81 141.5 125t166.5 44q119 0 184 -74.5t65 -213.5q0 -74 -19 -162l-1 -17h-583q-15 -78 -15 -127q0 -119 60 -184 t171 -65q117 0 268 48l-4 -56q-135 -56 -300 -56q-109 0 -176 49t-90 138q-65 -92 -158 -139.5t-197 -47.5q-190 0 -190 159zM220 155q0 -118 137 -118q109 0 191.5 68.5t114.5 192.5l26 125q-226 -3 -332 -49.5t-132 -164.5q-5 -24 -5 -54zM784 477h503q9 59 9 108 q0 118 -48 180t-133 62q-107 0 -197 -91.5t-134 -258.5z" />
<glyph unicode="&#xe7;" horiz-adv-x="772" d="M169 268q0 75 19 160q46 216 163.5 338t288.5 122q121 0 213 -63l-41 -58q-78 52 -181 52q-139 0 -231 -107.5t-128 -281.5q-17 -77 -17 -140q0 -112 53 -176t157 -64q101 0 211 51l7 -62q-101 -51 -227 -58l-32 -44q37 -5 59.5 -28t22.5 -62q0 -80 -52 -119t-119 -39 q-59 0 -108 26l22 34q43 -17 79 -17q48 0 79 25.5t31 73.5q0 67 -82 67l59 83q-123 7 -184.5 82t-61.5 205z" />
<glyph unicode="&#xe8;" horiz-adv-x="860" d="M177 268q0 66 17 149q46 218 172.5 344.5t300.5 126.5q111 0 163.5 -50.5t52.5 -135.5q0 -41 -8 -73q-68 -327 -616 -327v-23q0 -113 58 -173.5t171 -60.5q129 0 279 67v-54q-61 -30 -145 -53.5t-166 -23.5q-142 0 -210.5 76.5t-68.5 210.5zM263 357q539 3 539 328 q0 66 -36 104t-113 38q-124 0 -230 -103t-149 -305q-11 -58 -11 -62zM510 1318h90l107 -255h-67z" />
<glyph unicode="&#xe9;" horiz-adv-x="860" d="M177 268q0 66 17 149q46 218 172.5 344.5t300.5 126.5q111 0 163.5 -50.5t52.5 -135.5q0 -41 -8 -73q-68 -327 -616 -327v-23q0 -113 58 -173.5t171 -60.5q129 0 279 67v-54q-61 -30 -145 -53.5t-166 -23.5q-142 0 -210.5 76.5t-68.5 210.5zM263 357q539 3 539 328 q0 66 -36 104t-113 38q-124 0 -230 -103t-149 -305q-11 -58 -11 -62zM640 1063l153 222h88l-183 -222h-58z" />
<glyph unicode="&#xea;" horiz-adv-x="860" d="M177 268q0 66 17 149q46 218 172.5 344.5t300.5 126.5q111 0 163.5 -50.5t52.5 -135.5q0 -41 -8 -73q-68 -327 -616 -327v-23q0 -113 58 -173.5t171 -60.5q129 0 279 67v-54q-61 -30 -145 -53.5t-166 -23.5q-142 0 -210.5 76.5t-68.5 210.5zM263 357q539 3 539 328 q0 66 -36 104t-113 38q-124 0 -230 -103t-149 -305q-11 -58 -11 -62zM480 1071l213 210h52l121 -210l-23 -8l-137 155l-207 -155z" />
<glyph unicode="&#xeb;" horiz-adv-x="860" d="M177 268q0 66 17 149q46 218 172.5 344.5t300.5 126.5q111 0 163.5 -50.5t52.5 -135.5q0 -41 -8 -73q-68 -327 -616 -327v-23q0 -113 58 -173.5t171 -60.5q129 0 279 67v-54q-61 -30 -145 -53.5t-166 -23.5q-142 0 -210.5 76.5t-68.5 210.5zM263 357q539 3 539 328 q0 66 -36 104t-113 38q-124 0 -230 -103t-149 -305q-11 -58 -11 -62zM531 1104q0 25 18.5 44t40.5 19q18 0 28.5 -11.5t10.5 -29.5q0 -25 -18.5 -44t-42.5 -19q-15 0 -26 12t-11 29zM737 1104q0 26 19.5 44.5t42.5 18.5q16 0 26.5 -11.5t10.5 -29.5q0 -24 -18.5 -43.5 t-41.5 -19.5q-16 0 -27.5 12t-11.5 29z" />
<glyph unicode="&#xec;" horiz-adv-x="409" d="M166 91q0 53 16 123l138 652h78l-137 -656q-13 -59 -13 -96t14.5 -53t48.5 -16q19 0 33 5l-3 -59q-28 -10 -69 -10q-55 0 -80.5 26.5t-25.5 83.5zM244 1318h89l108 -255h-67z" />
<glyph unicode="&#xed;" horiz-adv-x="409" d="M166 91q0 53 16 123l138 652h78l-137 -656q-13 -59 -13 -96t14.5 -53t48.5 -16q19 0 33 5l-3 -59q-28 -10 -69 -10q-55 0 -80.5 26.5t-25.5 83.5zM374 1063l153 222h87l-182 -222h-58z" />
<glyph unicode="&#xee;" horiz-adv-x="409" d="M166 91q0 53 16 123l138 652h78l-137 -656q-13 -59 -13 -96t14.5 -53t48.5 -16q19 0 33 5l-3 -59q-28 -10 -69 -10q-55 0 -80.5 26.5t-25.5 83.5zM210 1071l213 210h52l121 -210l-23 -8l-137 155l-207 -155z" />
<glyph unicode="&#xef;" horiz-adv-x="409" d="M166 91q0 53 16 123l138 652h78l-137 -656q-13 -59 -13 -96t14.5 -53t48.5 -16q19 0 33 5l-3 -59q-28 -10 -69 -10q-55 0 -80.5 26.5t-25.5 83.5zM264 1104q0 25 19 44t41 19q18 0 28.5 -11.5t10.5 -29.5q0 -25 -18.5 -44t-42.5 -19q-15 0 -26.5 12.5t-11.5 28.5z M471 1104q0 26 19 44.5t42 18.5q17 0 27.5 -11.5t10.5 -29.5q0 -24 -18.5 -43.5t-41.5 -19.5q-16 0 -27.5 12t-11.5 29z" />
<glyph unicode="&#xf0;" horiz-adv-x="837" d="M179 268q0 80 18 164q47 221 159 338.5t247 117.5q64 0 112 -30.5t73 -81.5l-86 339l-129 -76l-24 48l138 84l-34 132h82l23 -91l119 73l26 -47l-132 -80l84 -346q37 -118 37 -244q0 -60 -15 -140q-48 -224 -164.5 -335.5t-271.5 -111.5q-123 0 -192.5 72t-69.5 215z M264 287q0 -120 53 -179.5t139 -59.5q116 0 205.5 94.5t131.5 287.5q13 59 13 121q0 119 -50.5 193.5t-142.5 74.5q-106 0 -198.5 -98t-133.5 -289q-17 -83 -17 -145z" />
<glyph unicode="&#xf1;" d="M147 0l183 866h74l-37 -175q38 79 118 138t182 59q197 0 197 -212q0 -50 -15 -130l-115 -546h-79l112 532q13 65 13 116q0 171 -154 171q-102 0 -183 -80.5t-115 -239.5l-105 -499h-76zM531 1087q63 99 128 99q29 0 68 -34.5t62 -34.5q42 0 82 63l28 -16 q-66 -99 -128 -99q-28 0 -68.5 35.5t-63.5 35.5q-39 0 -79 -67z" />
<glyph unicode="&#xf2;" horiz-adv-x="927" d="M181 290q0 70 16 146q43 202 164.5 327t290.5 125q135 0 206 -82.5t71 -224.5q0 -163 -63.5 -301t-172 -218.5t-235.5 -80.5q-136 0 -206.5 83.5t-70.5 225.5zM263 309q0 -119 54 -190t156 -71q98 0 184.5 71.5t137 190.5t50.5 254q0 117 -53 186t-155 69 q-99 0 -186 -70.5t-137.5 -188.5t-50.5 -251zM527 1318h89l108 -255h-67z" />
<glyph unicode="&#xf3;" horiz-adv-x="927" d="M181 290q0 70 16 146q43 202 164.5 327t290.5 125q135 0 206 -82.5t71 -224.5q0 -163 -63.5 -301t-172 -218.5t-235.5 -80.5q-136 0 -206.5 83.5t-70.5 225.5zM263 309q0 -119 54 -190t156 -71q98 0 184.5 71.5t137 190.5t50.5 254q0 117 -53 186t-155 69 q-99 0 -186 -70.5t-137.5 -188.5t-50.5 -251zM657 1063l153 222h87l-182 -222h-58z" />
<glyph unicode="&#xf4;" horiz-adv-x="927" d="M181 290q0 70 16 146q43 202 164.5 327t290.5 125q135 0 206 -82.5t71 -224.5q0 -163 -63.5 -301t-172 -218.5t-235.5 -80.5q-136 0 -206.5 83.5t-70.5 225.5zM263 309q0 -119 54 -190t156 -71q98 0 184.5 71.5t137 190.5t50.5 254q0 117 -53 186t-155 69 q-99 0 -186 -70.5t-137.5 -188.5t-50.5 -251zM495 1071l212 210h53l121 -210l-23 -8l-137 155l-207 -155z" />
<glyph unicode="&#xf5;" horiz-adv-x="927" d="M181 290q0 70 16 146q43 202 164.5 327t290.5 125q135 0 206 -82.5t71 -224.5q0 -163 -63.5 -301t-172 -218.5t-235.5 -80.5q-136 0 -206.5 83.5t-70.5 225.5zM263 309q0 -119 54 -190t156 -71q98 0 184.5 71.5t137 190.5t50.5 254q0 117 -53 186t-155 69 q-99 0 -186 -70.5t-137.5 -188.5t-50.5 -251zM529 1087q63 99 128 99q29 0 68.5 -34.5t62.5 -34.5q41 0 81 63l28 -16q-66 -99 -128 -99q-28 0 -68.5 35.5t-63.5 35.5q-38 0 -78 -67z" />
<glyph unicode="&#xf6;" horiz-adv-x="927" d="M181 290q0 70 16 146q43 202 164.5 327t290.5 125q135 0 206 -82.5t71 -224.5q0 -163 -63.5 -301t-172 -218.5t-235.5 -80.5q-136 0 -206.5 83.5t-70.5 225.5zM263 309q0 -119 54 -190t156 -71q98 0 184.5 71.5t137 190.5t50.5 254q0 117 -53 186t-155 69 q-99 0 -186 -70.5t-137.5 -188.5t-50.5 -251zM546 1104q0 25 18.5 44t40.5 19q18 0 28.5 -11.5t10.5 -29.5q0 -25 -18.5 -44t-42.5 -19q-15 0 -26 12t-11 29zM752 1104q0 26 19.5 44.5t42.5 18.5q16 0 26.5 -11.5t10.5 -29.5q0 -24 -18.5 -43.5t-41.5 -19.5q-16 0 -27.5 12 t-11.5 29z" />
<glyph unicode="&#xf7;" horiz-adv-x="619" d="M115 421l13 65h566l-13 -65h-566zM266 30q0 28 21 47.5t46 19.5q18 0 29.5 -11t11.5 -30q0 -26 -19 -47.5t-46 -21.5q-19 0 -31 12.5t-12 30.5zM436 829q0 26 22 45.5t45 19.5q18 0 29.5 -11.5t11.5 -29.5q0 -26 -20.5 -47.5t-45.5 -21.5q-18 0 -30 13.5t-12 31.5z" />
<glyph unicode="&#xf8;" horiz-adv-x="927" d="M123 -197l151 238q-93 82 -93 249q0 70 16 146q43 202 164.5 327t290.5 125q84 0 143 -33l134 210h56l-151 -236q95 -78 95 -248q0 -163 -63.5 -301t-172 -218.5t-235.5 -80.5q-79 0 -145 34l-136 -212h-54zM263 305q0 -122 57 -191l430 674q-46 31 -113 31 q-129 0 -226.5 -108t-133.5 -275q-14 -73 -14 -131zM356 82q54 -34 117 -34q98 0 184.5 71.5t137 190.5t50.5 254q0 123 -57 192z" />
<glyph unicode="&#xf9;" d="M190 201q0 60 19 153l108 512h76l-108 -512q-19 -85 -17 -132q0 -172 156 -172q106 0 183.5 74.5t111.5 229.5l108 512h76l-182 -866h-73l33 164q-36 -76 -111.5 -129.5t-176.5 -53.5q-203 0 -203 220zM492 1318h89l108 -255h-67z" />
<glyph unicode="&#xfa;" d="M190 201q0 60 19 153l108 512h76l-108 -512q-19 -85 -17 -132q0 -172 156 -172q106 0 183.5 74.5t111.5 229.5l108 512h76l-182 -866h-73l33 164q-36 -76 -111.5 -129.5t-176.5 -53.5q-203 0 -203 220zM622 1063l153 222h87l-182 -222h-58z" />
<glyph unicode="&#xfb;" d="M190 201q0 60 19 153l108 512h76l-108 -512q-19 -85 -17 -132q0 -172 156 -172q106 0 183.5 74.5t111.5 229.5l108 512h76l-182 -866h-73l33 164q-36 -76 -111.5 -129.5t-176.5 -53.5q-203 0 -203 220zM462 1071l212 210h52l121 -210l-22 -8l-138 155l-207 -155z" />
<glyph unicode="&#xfc;" d="M190 201q0 60 19 153l108 512h76l-108 -512q-19 -85 -17 -132q0 -172 156 -172q106 0 183.5 74.5t111.5 229.5l108 512h76l-182 -866h-73l33 164q-36 -76 -111.5 -129.5t-176.5 -53.5q-203 0 -203 220zM512 1104q0 25 19 44t41 19q18 0 28.5 -11.5t10.5 -29.5 q0 -25 -19 -44t-43 -19q-15 0 -26 12t-11 29zM719 1104q0 26 19 44.5t42 18.5q16 0 26.5 -11.5t10.5 -29.5q0 -24 -18.5 -43.5t-40.5 -19.5q-16 0 -27.5 12t-11.5 29z" />
<glyph unicode="&#xfd;" horiz-adv-x="778" d="M28 -359l26 59q45 -9 76 -9q22 0 40.5 8.5t33.5 27t23.5 31t21.5 37.5l97 186l-100 885h84l72 -797l413 797h84l-582 -1084q-85 -154 -192 -154q-21 0 -97 13zM585 1063l152 222h88l-183 -222h-57z" />
<glyph unicode="&#xfe;" horiz-adv-x="960" d="M71 -354l368 1732h79l-153 -719q58 107 147.5 168t193.5 61q118 0 191 -73.5t73 -220.5q0 -70 -19 -155q-48 -225 -170 -341.5t-269 -116.5q-105 0 -169 65t-73 168l-121 -568h-78zM303 305q0 -122 56.5 -188.5t152.5 -66.5q116 0 214 98.5t138 289.5q17 80 17 139 q0 121 -56 181.5t-149 60.5q-122 0 -221 -100t-137 -280q-15 -65 -15 -134z" />
<glyph unicode="&#xff;" horiz-adv-x="778" d="M28 -359l26 59q45 -9 76 -9q22 0 40.5 8.5t33.5 27t23.5 31t21.5 37.5l97 186l-100 885h84l72 -797l413 797h84l-582 -1084q-85 -154 -192 -154q-21 0 -97 13zM473 1104q0 25 18.5 44t40.5 19q18 0 29 -11.5t11 -29.5q0 -25 -19 -44t-43 -19q-15 0 -26 12t-11 29z M680 1104q0 26 19 44.5t42 18.5q16 0 26.5 -11.5t10.5 -29.5q0 -24 -18.5 -43.5t-40.5 -19.5q-16 0 -27.5 12t-11.5 29z" />
<glyph unicode="&#x152;" horiz-adv-x="1629" d="M214 454q0 97 22 198q41 193 140 345.5t240 238.5t300 86q135 0 238 -71l11 52h634l-15 -70h-551l-110 -520h491l-15 -71h-491l-121 -569h551l-15 -73h-633l9 50q-129 -69 -268 -69q-195 0 -306 129t-111 344zM302 471q0 -187 90 -299t250 -112q154 0 281 104l207 972 q-83 106 -236 106q-197 0 -357 -166.5t-215 -423.5q-20 -97 -20 -181z" />
<glyph unicode="&#x153;" horiz-adv-x="1498" d="M181 290q0 70 16 146q43 202 164.5 327t290.5 125q114 0 183.5 -62.5t86.5 -170.5q68 112 166 172.5t217 60.5q111 0 163.5 -50.5t52.5 -135.5q0 -204 -166 -302t-458 -98v-23q0 -113 58 -173.5t171 -60.5q130 0 280 67v-54q-61 -30 -145 -53.5t-166 -23.5 q-123 0 -192 57t-84 161q-65 -103 -157.5 -160.5t-203.5 -57.5q-136 0 -206.5 83.5t-70.5 225.5zM263 309q0 -119 54 -190t156 -71q98 0 184.5 71.5t137 190.5t50.5 254q0 117 -53 186t-155 69q-99 0 -186 -70.5t-137.5 -188.5t-50.5 -251zM901 357q540 3 540 328 q0 66 -36 104t-113 38q-124 0 -230.5 -103t-149.5 -305q-11 -58 -11 -62z" />
<glyph unicode="&#x178;" horiz-adv-x="906" d="M330 1303h91l160 -707l456 707h91l-523 -789l-108 -514h-84l108 514zM603 1415q0 25 19.5 44t40.5 19q18 0 29.5 -11t11.5 -28q0 -26 -19.5 -45.5t-44.5 -19.5q-15 0 -26 12t-11 29zM810 1415q0 25 19.5 44t41.5 19q17 0 27.5 -10.5t10.5 -28.5q0 -24 -18 -44.5 t-42 -20.5q-16 0 -27.5 12t-11.5 29z" />
<glyph unicode="&#x2c6;" horiz-adv-x="368" d="M285 1381l212 211h52l121 -211l-22 -7l-138 155l-207 -155z" />
<glyph unicode="&#x2dc;" horiz-adv-x="422" d="M324 1374q64 99 130 99q29 0 68.5 -34.5t62.5 -34.5q42 0 82 63l27 -17q-65 -98 -128 -98q-28 0 -68.5 35t-63.5 35q-19 0 -41 -19t-39 -48z" />
<glyph unicode="&#x2000;" horiz-adv-x="814" />
<glyph unicode="&#x2001;" horiz-adv-x="1629" />
<glyph unicode="&#x2002;" horiz-adv-x="814" />
<glyph unicode="&#x2003;" horiz-adv-x="1629" />
<glyph unicode="&#x2004;" horiz-adv-x="543" />
<glyph unicode="&#x2005;" horiz-adv-x="407" />
<glyph unicode="&#x2006;" horiz-adv-x="271" />
<glyph unicode="&#x2007;" horiz-adv-x="271" />
<glyph unicode="&#x2008;" horiz-adv-x="203" />
<glyph unicode="&#x2009;" horiz-adv-x="325" />
<glyph unicode="&#x200a;" horiz-adv-x="90" />
<glyph unicode="&#x2010;" horiz-adv-x="336" d="M93 413l15 69h330l-15 -69h-330z" />
<glyph unicode="&#x2011;" horiz-adv-x="336" d="M93 413l15 69h330l-15 -69h-330z" />
<glyph unicode="&#x2012;" horiz-adv-x="336" d="M93 413l15 69h330l-15 -69h-330z" />
<glyph unicode="&#x2013;" horiz-adv-x="670" d="M76 367l17 72h670l-16 -72h-671z" />
<glyph unicode="&#x2014;" horiz-adv-x="1528" d="M285 367l17 72h1111l-17 -72h-1111z" />
<glyph unicode="&#x2018;" horiz-adv-x="379" d="M320 1009l173 294h58l-151 -294h-80z" />
<glyph unicode="&#x2019;" horiz-adv-x="379" d="M320 1009l147 294h84l-175 -294h-56z" />
<glyph unicode="&#x201a;" horiz-adv-x="348" d="M17 -223l149 340h89l-173 -340h-65z" />
<glyph unicode="&#x201c;" horiz-adv-x="536" d="M320 1009l173 294h58l-151 -294h-80zM477 1009l173 294h56l-149 -294h-80z" />
<glyph unicode="&#x201d;" horiz-adv-x="536" d="M320 1009l147 294h84l-175 -294h-56zM477 1009l147 294h82l-175 -294h-54z" />
<glyph unicode="&#x201e;" horiz-adv-x="586" d="M34 -223l143 340h95l-184 -340h-54zM274 -223l141 340h97l-184 -340h-54z" />
<glyph unicode="&#x2022;" horiz-adv-x="482" d="M207 424q0 72 50.5 127.5t111.5 55.5q45 0 72.5 -31.5t27.5 -80.5q0 -71 -50.5 -125.5t-113.5 -54.5q-44 0 -71 30.5t-27 78.5z" />
<glyph unicode="&#x2026;" horiz-adv-x="1022" d="M132 34q0 23 17 42t39 19q17 0 27 -11.5t10 -27.5q0 -24 -16.5 -41t-40.5 -17q-16 0 -26 10.5t-10 25.5zM473 34q0 23 17 42t39 19q17 0 27 -11.5t10 -27.5q0 -24 -17 -41t-41 -17q-16 0 -25.5 10.5t-9.5 25.5zM815 32q0 23 16 43t38 20q17 0 27.5 -11.5t10.5 -27.5 q0 -24 -17 -41t-41 -17q-16 0 -25 9.5t-9 24.5z" />
<glyph unicode="&#x202f;" horiz-adv-x="325" />
<glyph unicode="&#x2039;" horiz-adv-x="526" d="M203 458l356 376l33 -35l-290 -341l143 -341l-48 -33z" />
<glyph unicode="&#x203a;" horiz-adv-x="528" d="M130 117l291 341l-145 341l48 35l195 -376l-353 -376z" />
<glyph unicode="&#x205f;" horiz-adv-x="407" />
<glyph unicode="&#x20ac;" horiz-adv-x="1251" d="M132 462l45 54h195q9 54 23 119l11 54h-224l45 54h194q78 273 236 426t376 153q166 0 283 -78l-39 -62q-47 31 -118 50t-139 19q-184 0 -315.5 -139t-198.5 -369h553l-44 -54h-523l-12 -50q-5 -24 -11 -66.5t-9 -56.5h449l-47 -54h-406q-2 -17 -2 -51q0 -171 76 -265 t231 -94q143 0 295 65l3 -65q-153 -71 -320 -71q-188 0 -280 106t-92 304q0 47 2 71h-237z" />
<glyph unicode="&#x2122;" horiz-adv-x="1416" d="M398 1247l12 56h430l-11 -56h-185l-139 -657h-62l140 657h-185zM674 588l279 715h62l41 -625l303 625h62l-21 -715h-59l20 615l-300 -615h-50l-39 615l-240 -615h-58z" />
<glyph unicode="&#xe000;" d="M0 0v866h866v-866h-866z" />
</font>
</defs>
</svg>
