<?xml version="1.0" encoding="utf-8"?>
<!-- Generator: Adobe Illustrator 16.0.0, SVG Export Plug-In . SVG Version: 6.00 Build 0)  -->
<!DOCTYPE svg PUBLIC "-//W3C//DTD SVG 1.1//EN" "http://www.w3.org/Graphics/SVG/1.1/DTD/svg11.dtd">
<svg version="1.1"
	 id="svg2" xmlns:dc="http://purl.org/dc/elements/1.1/" xmlns:cc="http://web.resource.org/cc/" xmlns:rdf="http://www.w3.org/1999/02/22-rdf-syntax-ns#" xmlns:svg="http://www.w3.org/2000/svg" xmlns:sodipodi="http://sodipodi.sourceforge.net/DTD/sodipodi-0.dtd" xmlns:inkscape="http://www.inkscape.org/namespaces/inkscape" sodipodi:docbase="C:\Users\Ado\Pictures" inkscape:output_extension="org.inkscape.output.svg.inkscape" sodipodi:docname="Brazil Blank Map.svg" inkscape:version="0.45.1" sodipodi:version="0.32"
	 xmlns="http://www.w3.org/2000/svg" xmlns:xlink="http://www.w3.org/1999/xlink" x="0px" y="0px" width="526.052px"
	 height="539.883px" viewBox="16.201 4.667 526.052 539.883" enable-background="new 16.201 4.667 526.052 539.883"
	 xml:space="preserve">
<g id="Estados">
	<g id="Centro-Oeste">
		<path fill="#464646" stroke="#FFFFFF" d="M393.15,276.24c-0.735,0.117-3.751-3.074-4.739-3.464
			c1.561-1.132-0.87-4.987,0.456-5.287c-0.753-3.228,1.771-2.877,2.484-5.744c-0.297,1.197-4.245-0.49-3.76-0.634
			c0.226-0.579,2.89-5.229,2.917-4.648c-0.386,0.344-3.117,1.226-3.558,0.91c0.504-2.196-0.151-0.738-0.544-2.276
			c-0.181,1.518-11.858,6.479-13.489,6.468c-0.214-0.001-1.79-2.397-2.826-2.551c-0.568,1.542-0.118,3.083-0.638,5.014
			c-0.881-0.977-5.286-3.104-5.286-3.191c-0.687,0.791-0.327,0.557-1.276,1.003c0.238-0.727,0.118-1.443,0.272-2.188
			c-0.987,0.718-3.64,1.096-3.917,2.007c-0.547-0.391-0.143-1.724-0.547-2.279c0-0.209-1.729,2.551-1.321,2.551
			c-1.034,0-1.336-10.903-5.332-4.921c-0.535-1.373-1.462-0.783-1.913-2.37c-1.242,0.458-4.443,6.133-3.398,6.729
			c0.218,0.125-18.863-9.341-11.004-9.827c-0.591-0.506-0.25-1.509,0.639-2.37c-3.717,0.844-3.251,4.143-4.921,6.471
			c-0.049,0.367-2.58-2.913-2.552-2.917c0.135-0.771,1.381-2.557,0.979-3.718c-1.066-3.096-0.757-6.886-0.432-10.137
			c0.107-1.098,1.377-25.357,5.778-25.066c-25.87-1.721-51.732-3.506-77.566-5.711c-9.818-0.838-9.449-1.254-15.158-5.952
			c-1.706-1.407-4.652-2.013-6.108-3.28c-0.879-0.766-0.36-3.437-1.056-4.307c-2.471-3.09-0.998-12.684-6.235-15.198
			c-0.24,0.703-3.505,11.641-2.403,11.092c-0.977,0.488-1.257,8.967-0.193,7.911c-3.102,3.085-13.227,1.158-17.249,1.155
			c-8.817-0.007-17.635-0.106-26.453-0.106c1.509,0.97,1.217,4.646,0.729,6.29c-0.23-0.243-1.256-0.036-1.366,0.181
			c-1.087,2.145,3.627,3.623,0.728,6.287c2.701,1.492,0.366,15.008,0.366,17.5c1.963,0.108,16.358,1.546,16.222,1.642
			c0.329,0,4.092-0.215,4.739,0.453c1.905,3.872-1.366,3.19-1.366,5.833c-0.693,3.133,5.152,10.732,3.234,12.714
			c-0.772,0.796-10.699,17.735-11.346,17.178c0.007-0.111,2.84,1.082,3.099,1.185c-0.841,0.035,1.834,6.188,0.456,7.566
			c0.578,0.19,0.33,0.52,0.729,1.459c-1.88,1.88,7.636,7.908-2.552,9.021c1.928,2.249,7.055,16.075,6.502,16.064
			c6.731,0.13,17.833,2.584,23.666-0.023c-0.83,3.954-1.366,7.081-1.366,10.664c-3.392,0.805,10.002,8.246,8.932,7.289
			c-1.011-0.235,2.731,8.058,4.008,9.298c-2.882,0.19-4.808,10.755-3.188,10.755c-1.647,5.468-8.92,8.052-2.557,13.017
			c0.599,0.468-3.116,3.099-3.73,3.124c-0.19,0.009,3.958,7.626,4.008,7.918c-0.908-0.246-1.284-0.026-1.128,0.659
			c1.726-0.074,0.891,1.529,0.295,1.435c2.065,0.326-0.114,14.496-0.898,16.498c0.391-0.391,17.655,2.162,18.229,2.369
			c-0.374-0.593,2.701-2.408,3.279-2.642c-0.517,2.555,6.678,3.775,8.112,4.374c0.282-0.282,2.611,9.855,3.16,10.663
			c1.681,2.468-0.106,8.112,1.872,11.145c1.939,2.974,9.014-2.679,10.504-1.749c8.619,5.379,8.469-5.007,13.493-11.764
			c5.143-6.938,15.86-8.064,19.619-16.814c2.062-4.763,4.922-9.685,7.248-14.797c1.643-3.606,9.864-5.742,8.113-10.15
			c-0.609-1.54,0.338-6.642,0.973-6.953c1.277-0.63,6.675-6.437,7.91-9.743c0.311-0.815,11.207-3.797,11.433-3.722
			c3.056,1.019,3.316,0.269,6.247-1.665c1.312-0.863,6.285-1.153,7.449,0.001c1.715,1.729,10.22,1.438,11.045-0.611
			c0.265-0.664,6.431-3.532,4.221-5.633c1.752,0-1.945-7.936-2.188-8.199c0.132,0.109,4.857-4.063,5.103-4.559
			c1.224-0.611-6.082-6.735-2.747-10.355c1.576-1.712-0.591-3.489,4.025-4.468c4.298-0.919,1.594-7.929,2.186-7.87
			c0.237-0.181-0.729-3.477-0.729-4.101c0-1.992,4.758,0.959,5.559-0.091c0.029-0.039-0.92-7.331,1.047-4.354
			c0.853,1.31,3.619,2.284,3.602,2.257C391.233,283.986,393.33,276.511,393.15,276.24
			C392.351,276.367,393.468,276.718,393.15,276.24z"/>
	</g>
	<g id="Norte">
		<path fill="#464646" stroke="#FFFFFF" d="M396.067,218.367c-1.892,0.534-13.412,0.483-11.808-5.179
			c1.424-5.025-3.609-5.278-4.78-9.314c0.682,0-1.841-0.954-1.822-0.91c1.813,0,2.127-6.191,2.46-6.743
			c0.264,0.263,9.102-9.116,4.011-9.116c-1.329,0-8.369,2.081-7.018,0.729c-0.346-2.627-4.519-6.175-6.472-7.2
			c0.782-0.319,1.26-0.884,1.431-1.695c-0.312-0.623-4.436-0.534-3.525-2.131c3.114-5.46,5.67-10.866,4.113-18.43
			c-0.322-1.575-5.312-10.636-7.828-8.114c1.142-1.142-11.04,1.097-9.774,1.39c4.212-3.488,27.351-18.874,23.787-25.703
			c0.815,0.467,4.848-8.751,5.468-9.022c-0.207-0.032-0.237-0.092-0.091-0.181c-0.249,0.125-0.833-1.452-1.185-1.276
			c1.342,2.52,5.845-15.211,4.739-13.761c0.599-0.787,4.949-9.133,3.098-10.026c-0.252,1.898-1.118,0.91-1.048,0.91
			c-0.613,0,0.351,1.003-0.137,1.003c0.007,0.091,0.01-2.197-0.045-2.143c-0.387,0.385-0.983,1.842-1.321,2.415
			c-0.191-0.95,1.383-3.845,0.923-3.855c-0.975-0.022-1.646,2.716-1.379,2.671c-0.694,0.12-0.497-0.888-0.457-1.276
			c-0.466,0.1-0.479,0.568-0.362,0.822c0.076-0.576-0.093-0.86-0.506-0.853c-0.337,0.26-0.226,0.955-0.226,1.034
			c-0.249,0.025-0.188-0.12,0.185-0.436c0-0.962-0.845,0.087-0.822,0.255c-0.666-0.666,0.535-2.351,0.365-2.554
			c-0.988,0.183-0.838,0.376-1.094,1.185c-0.139-0.191-0.199-0.099-0.182,0.275c0.147-0.42,0.071-0.74-0.229-0.958
			c-0.239,0.241-0.875,1.585-1.502,0.958c0.589,0.1,0.438-3.154-0.091-2.46c0.058,0.058,0.097,0.808,0.091,0.819
			c-0.089-0.146-0.149-0.116-0.182,0.091c1.569-1.569-2.994,2.006-0.822,0.728c1.654-2.473-0.778-0.751-0.547-1.091
			c-0.104,0.294-0.135,0.597-0.091,0.91c0.042,0.075-0.444-1.505-0.362,0c0.053-0.345,0.021-0.68-0.094-1.003
			c-0.013,0.087-0.312,0.457-0.363,0.457c-0.035-0.471,0.418-0.852,0.272-1.367c-0.172,0.232-0.323,0.11-0.456-0.365
			c-0.03,0.152,0.062,0.182,0.274,0.091c-0.813,0.465-0.115,0.869-0.912,1.641c-0.125-0.168-0.308-0.199-0.548-0.091
			c0.102,0.02-0.4-2.009,0.094-1.641c-0.703-0.989-1.999,0.469-1.094,0.913c-0.183-0.165-0.361-1.342-0.456-1.369
			c0.535,1.113-0.107,0.51-0.366-0.544c-0.822,0.291-1.062,1.288-1.091,1.548c-0.228-0.778,0.416-2.084-0.822-1.003
			c0.169-0.142,0.108-0.142-0.182,0c0.559-0.181,0.694-0.491,0.406-0.93c-0.435-0.354-0.671,0.081-1.044,0.111
			c0.121-0.182,0.121-0.364,0-0.547c0.061,0.246,0.121,0.246,0.182,0c0.201,0.067-3.787,0.367-2.642-0.091
			c-0.037,0,0.091,2.352,0.091,2.279c-0.766,0.031-0.407-2.304-1.46-2.551c-0.011,0.58-0.162,1.126-0.454,1.638
			c-0.016,0-1.257-1.97-1.094-2.185c-0.901-0.606-1.088,1.439-1.003,1.366c0.1-0.157-0.475-1.285-0.364-1.23
			c0.361,0.178-0.866,1.659-1.002,1.777c0.114-0.321,0.629-1.436,0.09-1.732c-0.258-0.141-1.641,1.561-1.641,2.004
			c0-1.113-5.701-2.438-6.562-2.732c5.316-5.75-12.395-2.574-12.395-7.2c-2.85,0.606-2.424-5.977-6.789-4.031
			c-5.694,2.541-0.439-10.885-0.592-11.009c5.442-2.605-5.682-16.073-10.117-14.309c0-3.644-8.144-32.505-11.207-31.739
			c-0.273,0.068-6.573,11.625-7.69,13.642c-1.364,2.466-2.409,5.501-3.752,7.504c-1.534,2.283-7.119,14.805-11.892,9.955
			c-0.697-0.181,0.533-1.307,0.593-1.185c-0.374-0.746-5.868-0.938-6.973-0.547c0.616-0.63-0.086-0.792,0.182-0.819
			c1.797,1.474-13.352,0.876-12.204,0.591c-1.269,0.315-3.521-4.509-6.113-2.779c-0.728-1.445-5.86,3.128-6.381,1.275
			c-1.933,0.394-2.568,0.186-4.192-0.91c-1.441-0.97-1.65,1.738-2.554,1.731c-0.808-0.007,2.749,5.919,1.778,7.2
			c-0.659,0.868-17.55-2.062-17.271-1.094c0.688,0.481-9.695,3.261-10.389,4.011c0.649,0.146,0.019,1.732,0,2.004
			c-1.235-0.753-6.722-1.449-6.695,0.564c0.108,8.194-15.544-0.843-15.544-4.847c-0.621,0.82-1.636-8.071-2.37-7.018
			c-2.139-3.028-0.319-6.848-1.524-10.409c-1.187-3.552,4.228-10.615,5.901-12.103c-0.413-0.88-2.617-6.189-3.189-6.562
			c-0.595-0.387-5.461-1.677-5.494-1.544c0.974-3.929,1.3-5.401,0.764-9.144c-0.129-0.916-8.366-0.532-8.487-0.157
			c5.399,3.157-4.303,11.013-7.656,9.113c0.249-0.076-8.395,5.972-8.385,6.108c-0.176-0.061-10.522-1.064-8.384,1.185
			c-4.108,1.217-1.871,0.4-2.551,4.739c-3.295-0.329-2.182,0.13-4.76-1.594c-0.132-0.089-4.254-4.581-4.72-2.236
			c1.242,0-0.646,1.488-0.638,1.551c-0.23-0.475-2.551-1.49-2.551-2.415c-0.301,0.569-0.18,0.979,0.363,1.23
			c-0.281,0.492-4.303-1.239-4.011,0.729c-1.698-0.541-2.017-2.918-3.847-3.531c-0.423-0.141-8.687-0.889-7.565-2.008
			c-1.576,1.573,5.961,7.685,7.332,8.59c2.57,1.695-1.675,5.79,0.66,7.737c3.051,2.543,1.832,4.539,2.51,7.166
			c-0.669-0.421,8.475,5.674,8.475,2.208c0,3.305-1.835,5.451-5.195,5.995c-1.748,0.284-8.659,7.142-7.381,8.476
			c-1.175,0.793-0.245-2.012-0.205-1.893c-0.081-0.242-4.782,4.172-6.176,2.621c-1.721,3.755-8.124,4.015-9.841,9.207
			c0.794,0.495-0.543-7.835-1.823-4.648c-0.479-0.769-5.377,2.771-5.377,2.962c0,0.587-11.308-6.092-13.58-5.422
			c0.902-5.439-1.495-6.561-2.664-10.083c-3.106-9.372-0.864-0.77-5.54-1.766c-0.172-0.037-4.812,1.696-4.719,1.665
			c-0.825,0.276-4.448-1.166-1.57,1.799c-0.282,0.227-0.236,0.41,0.138,0.547c-3.017,0-19.767-2.427-22.375,0.182
			c0.159,0.037-0.922,7.569-0.271,8.75c0.014,0.025,6.291,0.181,7.29,0.181c1.497,0,2.821,5.749,2.46,6.015
			c0.123-0.091-8.664-0.083-8.475,0.181c-1.58,4.16-3.774-3.248-3.92,5.196c-0.115,6.728,1.866,5.124,4.056,9.479
			c0.209,0.418,3.635,8.359,3.965,8.203c4.136,3.575-6.306,45.791-8.021,46.023c0.273-2.34-2.369-0.047-2.188,0.094
			c-0.989-0.769-4.81-4.797-6.015-3.191c-1.425,1.561-10.845,6.881-13.033,5.468c-2.27-1.466-13.701,5.692-16.905,8.886
			c-2.387,2.373-4.113,13.562-3.691,16.085c0.141-0.141,0.158,2.349-0.638,3.191c-0.137-0.341-5.489,2.349-5.929,2.94
			c-2.243,3.016-0.356,4.63-0.727,7.267c-0.113,0.807-3.509,0.882-3.479,0.745c-0.544,2.55,4.006,5.77,3.664,6.82
			c-2.071,6.363,16.055,14.624,6.38,21.689c3.962,0,7.183,0.287,10.389,0.913c2.561,0.497,4.324,7.29,3.251,7.29
			c10.098,0,17.429-2.275,22.905-8.021c-1.542,4.082-1.931,13.134-1.731,21.783c1.75-1.211,4.698,2.23,6.928,0
			c2.658-1.745,9.619,0.928,11.21-0.638c1.447,0,3.982,0.24,5.468,0.913c0.001,0.625,7.214,0.161,7.109,0
			c1.93-3.884,4.672-6.292,8.385-4.195c0.498-2.129,7.796-7.741,9.297-6.287c0.798-3.775,8.379-6.015,10.936-6.015
			c2.033-0.035,4.117-1.452,5.377-0.457c0-1.273,0.652,0.104,1.548-0.638c0.841,1.462,3.959,0.032,3.191-1.094
			c2.487,0.938,1.78,20.595,1.185,21.508c-1.565,2.396,5.296,12.07,7.019,12.486c-0.847-0.204,2.817,0.457,1.047,0.457
			c-0.064-0.548,0.133-0.883,0.591-1.003c0.347,0.22,7.41,7.835,7.932,5.833c2.681-1.315,6.355-0.692,9.388,1.276
			c3.23,0.492,6.788,5.406,10.479,5.105c-0.597,1.287,11.428,3.543,10.754,8.112c0.507-1.144,11.275-0.906,11.485-0.731
			c-0.062,0.125-0.124,0.125-0.185,0c0.136,0.44,0.076,0.562-0.182,0.366c-0.179,4.743,6.31-0.293,7.109-0.457
			c0-2.684,5.023-8.188,5.649-11.757c0.125-0.718,2.188-2.334,2.188-2.276c2.745-1.667-0.033-1.884,0-4.192
			c0.019-1.224-1.235-3.536-2.004-3.83c-1.557-0.592-0.685-4.116-0.547-4.739c0-2.617,3.257-1.991,1.366-5.833
			c-0.647-0.668-4.41-0.453-4.739-0.453c-0.069,0.049-14.055-1.521-16.222-1.642c0-2.508,2.331-16.01-0.366-17.5
			c1.36-1.249-0.226-7.381,0.639-6.468c0.551-1.856,0.899-5.241-0.729-6.29c8.587,0,17.174,0.09,25.761,0.09
			c3.378,0,15.478,2.06,17.742-0.896c-1.187,1.548,0.46-7.204,0.308-7.661c-1.391-4.189,1.063-7.4,2.487-11.584
			c8.317,3.99,3.458,18.067,11.211,21.692c0.656,0.305,4.816,4.255,4.592,4.292c1.812-0.301,2.044,0.905,2.518,2.085
			c0.155,0.386,9.099,0.582,9.816,0.642c25.961,2.187,51.948,4.02,77.945,5.732c-1.634-0.107-7.872,21.442-6.804,23.579
			c1.257,2.522,1.407,7.579,1.247,10.788c-0.158,3.073,1.923,6.723,1.823,7.475c0.604-0.843,2.97-7.241,4.192-6.199
			c0.55,0,0.113-0.132,0.729-0.272c-1.853,1.793-2.41,4.839-1.276,6.471c1.042-1.076,11.33,5.547,11.572,5.686
			c-0.718-0.41,2.088-6.181,3.468-6.689c0.451,1.586,1.378,0.997,1.913,2.37c4.043-6.052,4.159,4.665,5.287,4.921
			c-0.283-0.064,1.366-2.904,1.366-2.551c0.404,0.555,0,1.888,0.547,2.279c0.277-0.911,2.93-1.289,3.917-2.007
			c-0.146,0.706-0.043,1.492-0.272,2.188c0.949-0.447,0.59-0.213,1.276-1.003c0,0.089,4.5,2.32,5.286,3.191
			c0.52-1.932,0.069-3.472,0.638-5.014c1.203,0.181,2.546,2.549,2.826,2.551c1.679,0.011,13.293-4.833,13.489-6.468
			c0.393,1.538,1.048,0.08,0.544,2.276c0.407,0.292,3.218-0.604,3.558-0.91c-0.466-0.398-2.063,0.414-2.554,0.456
			c0.112-0.441,1.36-7.734,1.96-6.563c-1.69-3.323-5.26-2.761-0.299-7.768c-0.464,0.468-2.661-0.279-2.118-1.71
			c0.667-1.788,2.688-0.933,3.373-2.097c0.292-0.494-12.347-2.741-3.098-9.935c1.008-0.786,1.059-5.086,3.118-4.397
			C392.825,225.096,395.825,219.069,396.067,218.367C395.878,218.42,395.9,218.853,396.067,218.367z M209.324,21.962
			C209.517,22.15,209.494,22.186,209.324,21.962C209.388,22.024,209.368,22.02,209.324,21.962z"/>
	</g>
	<g id="Sudeste">
		<path fill="#464646" stroke="#FFFFFF" d="M476.906,331.288c-7.679-3.658-7.754-8.154-12.761-12.761
			c1.519-0.328,0.542-3.995,0.815-4.976c0.917-3.286,2.873-1.057,4.289-2.771c-0.706-1.162-0.376-0.163-1.366-0.82
			c2.763-1.196,3.317-6.683,5.923-7.976c1.824-0.908-2.19-3.59-2.097-4.147c0.816-1.202-14.755-2.369-15.694-2.369
			c0.935,0-12.551-13.311-15.11-8.838c-0.658-1.788-6.291-3.953-7.747-5.287c-2.67-2.433-7.351,0.854-9.522,0.41
			c-6.223-1.275-0.36-3.984-2.873-5.971c-0.148,0-3.43-0.271-3.826-0.547c1.094-0.757-6.662,1.643-6.743,1.641
			c-0.244,0-18.267,12.894-18.866,11.939c-0.229-0.253-0.411-0.283-0.548-0.091c0.009-0.289-0.113-0.501-0.365-0.638
			c0.691-7.609,1.021-0.528-2.323-3.873c-4.864-4.865-0.82-0.972-2.963,1.869c0.279-0.371-6.762-0.38-5.012,0.729
			c-1.56,1.768,1.309,2.853,0.388,3.671c-2.564,2.284,2.925,6.355-0.749,7.288c-1.825,0.456-7.519,4.26-5.562,4.26
			c0.188,0.317-2.335,8.095,0.912,6.471c0.958,0.988,1.094,4.784,1.729,4.467c-0.163,0.329-4.931,4.701-5.103,4.559
			c3.171,3.446,3.808,13.232-2.645,14.489c-0.087,0.018-3.799,2.159-3.645,0.91c-0.315,0.38-5.349-1.74-6.672-0.953
			c-0.945,0.567-5.598-1.257-6.815-0.229c-2.332,1.976-4.672,3.188-6.927,1.914c-0.517-0.292-7.897,2.902-10.045,2.475
			c-2.09-0.417-7.728,10.201-7.728,11.15c0-1.329-2.22,6.774-2.527,7.721c-0.341,1.04-9.526,12.961-9.412,12.92
			c0.968-0.344-17.558,26.208-18.5,23.334c1.506-4.037,22.317,0.06,26.33,1.394c3.379,1.12,5.749,1.282,8.12,2.433
			c2.471,1.217,6.125-0.877,7.452,0.437c7.124,7.044,2.511,14.613,10.32,19.067c-5.212,5.497,5.628,4.922,7.018,4.922
			c0.153,0.099,4.58,0.36,1.548,2.645c0.179,0-1.016,2.914,0.411,2.914c-0.142,0,3.577-2.992,2.688-0.455
			c0.551-0.58,0.919-0.398,1.094-1.275c1.142,1.927,0.428,4.161,3.008,3.371c0.041,0.571-0.292,0.996-1.001,1.275
			c2.752-0.609,2.131-3.316,3.486-4.672c2.552-2.552,5.651-3.745,8.451-5.854c2.456-1.85,9.706-8.783,11.027-7.974
			c0.988-0.411,10.339-5.156,13.309-2.279c0.176-2.108,3.521-5.046,3.826-3.918c-0.111,0.173,7.714-4.397,8.112-3.098
			c0.422-0.459-1.918-0.185-0.638-1.094c-0.595,0.152-0.96,0.517-1.094,1.094c-0.165-0.384-0.044-0.719,0.362-1.004
			c-0.374,0.053-0.737,0.144-1.091,0.272c0.216-0.074,0.246-0.104,0.091-0.091c0.374-0.374,0.079,0.103,0.453-0.271
			c-0.582-0.624,0.029,0.172-0.819,0.09c0.125-0.081,0.125-0.111,0-0.09c0.641-3.062,3.742-3.385,4.921-3.83
			c-0.605,0.009-0.104-0.195-0.272-0.363c0.218,0.042,0.345,0.203,0.548,0c0.402,0.77-0.734,0.742-0.366,1.549
			c2.839-2.071,8.854-0.272,14.218-0.272c-0.981-0.201-1.225-0.293-0.729-0.275c0.236-0.437-0.473-0.074-0.547,0
			c0-0.174-0.206-0.011-0.365-0.091c0.178-0.225,3.121-0.331,3.554-0.547c-1.665-1.223-1.931-3.779,1.642-3.555
			c-0.416,0.701-1.543,3.32-1.185,3.373c0.216-0.216-0.112-0.104-0.272,0.092c1.998-0.475,14.817-0.153,15.128,0.821
			c-0.218-1.266,2.036-3.064,1.822-3.647c0,0.639-3.321-0.888-0.638-2.914c3.712-2.783,7.292-4.522,11.95-6.842
			c1.614-0.804,0.526-5.231-0.283-6.191c-0.993-1.174,2.445-5.653,2.824-6.883c0.521-1.698,3.329-4.439,2.825-3.418
			c0.929,0,2.227-2.186,1.55-2.186c-0.827,0.398,0.8-0.635,0.729-0.456c0.26-0.26,4.53-6.827,3.714-8.254
			c-0.722-1.261,5.127-5.769,5.127-5.803C475.174,346.886,478.649,333.4,476.906,331.288
			C475.041,330.399,477.178,331.617,476.906,331.288z M415.571,274.963C415.523,275.108,415.566,274.979,415.571,274.963
			L415.571,274.963z M465.24,363.822C465.305,363.757,465.308,363.755,465.24,363.822L465.24,363.822z"/>
	</g>
	<g id="Sul">
		<path fill="#464646" stroke="#FFFFFF" d="M364.805,426.708c-2.63,0.805-1.906-1.513-3.008-3.371
			c-0.175,0.877-0.543,0.695-1.094,1.275c0.79-2.255-2.463,0.43-2.642,0.455c-1.345,0.222-0.39-2.914-0.457-2.914
			c2.414-1.818-1.348-2.516-1.548-2.645c0.321,0-4.487-0.65-4.285-0.91c-3.715,1.807-5.548-1.042-2.732-4.012
			c-1.891-1.088-7.815-10.799-5.562-11.575c-2.354-5.287-4.979-10.144-14.033-8.476c-2.894,0.534-10.426-3.826-14.72-3.826
			c-5.645,0-13.754-1.616-19.489,1.482c-5.215,2.818-4.649,6.739-8.864,9.549c-0.934,0.626-6.451,10.167-6.143,11.296
			c0.467,1.724-5.025,21.331-1.366,20.233c1.226-0.366,1.954-1.232,3.461-1.549c0.004,0.01-0.286-1.728,0.913-1.184
			c-0.341,0.583-0.311,1.159,0.091,1.73c0.688-0.894,1.295-0.743,1.913,0.363c0.042-0.244,3.01,4.037,3.01,5.788
			c0,6.18,0.277,7.176,0.91,11.075c-0.775-0.277-0.429,0.967-0.091,1.09c-1.52,0.082-0.821,1.287-1.822,1.369
			c0.204,0.579-2.491,4.136-4.83,2.918c0.186,0.098-11.651,6.01-12.305,7.289c0.326-0.639-10.91,7.971-8.475,8.932
			c-4.316-1.711-7,7.305-10.664,9.159c-1.875,0.948-4.974,5.415-6.335,7.246c-2.288,3.077-7.076,4.934-8.977,8.021
			c1.377-0.966,4.656,1.608,7.565-1.094c5.663,0,10.229,5.16,14.399,9.66c-4.956,2.759,4.679,2.569,3.826,2.369
			c0.276,0.276,0.936-3.324,2.554-1.092c-0.848,0.663,8.396,6.545,8.747,6.652c5.49,0,10.352,8.255,15.587,9.932
			c-1.585,0.07,3.461,6.118,3.461,5.517c0,1.611,2.836,1.094,2.941,1.506c-0.193-0.76,2.74,6.966-0.388,4.28
			c-0.264-0.043-0.077-0.065-0.184-0.273c-0.507,0.346-0.325,0.527,0.547,0.547c-2.778,3.405-3.826,5.507-3.826,10.071
			c0,3.022,6.159-1.938,6.535-2.251c4.685-3.899,6.332-7.022,8.485-12.571c3.119-8.032,10.969-8.666,16.304-15.066
			c7.104-8.517,11.027-16.247,16.745-25.599c3.466-5.67,10.069-14.369,16.273-15.92c-0.275-0.74,0.86-4.644,1.366-5.104
			c-0.297-0.217,1.077-7.597,0.912-7.381c-2.022,0,1.988-6.132,1.275-5.562c-0.402-0.235-0.372-0.509,0.091-0.818
			c0.199-0.199-1.987,0.02-1.913-0.729c-0.01-0.007-0.24-3.468,0.366-4.283c-3.136-1.722,0.843-4.612,1.185-7.84
			c-0.71,1.687-1.827-5.845-0.547-5.012C357.905,431.347,364.805,430.371,364.805,426.708
			C364.626,426.763,364.805,426.8,364.805,426.708z"/>
	</g>
	<g id="Nordeste">
		<path fill="#464646" stroke="#FFFFFF" d="M542.253,176.533c-0.411-0.267-0.378-2.468-0.457-2.46
			c0.927,1.353-0.546,0.024-0.274,0.638c-0.492,0.088-4.508-23.862-8.657-25.7c-5.76-2.55-14.038,1.593-18.339-2.755
			c-1.969-1.998-8.102-2.618-10.555-5.357c-2.509-2.801-5.618-6.444-8.745-8.748c-7.058-3.529-14.265-11.8-22.512-15.13
			c-0.891-0.459-28.007-0.333-27.342-1.185c-1.185-2.398-7.05-0.242-9.614-2.777c0.552,0.551,0.079,0.058,0.683,1.23
			c0.474,0.136-1.165-1.95-0.821-1.46c-0.057,0.051,0.012,0.423-0.272,0.366c0.048-0.024-10.317-3.724-10.563-4.253
			c-0.959-2.063-5.302,4.369-5.934,4.435c0.973-1.613-0.488-2.012-1.548-1.548c1.027-0.77,0.324-0.302,1.276-0.275
			c-0.261-5.119-0.822,0.707-0.822-0.457c-1.119,1.155-3.315,1.252-4.465-0.09c1.133,0.532-1.279-6.461-1.366-6.381
			c0.605,0.625,0.619-0.701-0.184-0.91c0.035,0.22,0,0.92,0-0.547c0-0.17-1.4,0.25-1.457,0.181c0.134-0.103,0.289-0.111,0.467-0.024
			c0.09-0.087-1.13-1.468,0.171-1.523c-0.68-0.683-1.207,0.401-1.366,1.094c0.321-0.295,0.473-0.66,0.453-1.094
			c-0.038,0.694-1.938,1.159-2.551,1.185c0.492-0.128,2.065-0.907,2.004-1.55c-0.573,0.284-0.791,0.366-1.185,0.456
			c-0.324,0.406,0.822-2.899,1.731-1.185c0.81-0.777-0.366-2.001-0.819-0.638c0.19-0.258,0.236-0.532,0.137-0.822
			c-0.668,0-0.512,1.663-0.684,0c-0.394,1.63-0.241,0.646-0.547,0.547c0.291,0.26-0.945-0.333-1.275,0.184
			c-0.621-1.002,1.018-2.566,1.003-2.554c-0.027,0.141,0.033,0.141,0.182,0c-0.268-0.084-0.541-0.114-0.819-0.091
			c0.4,0.4-1.199,0.963-1.003,1.275c-0.237-0.285-0.8-0.711-1.823,0.094c0.021-0.02,0.725-1.873-0.638,0.09
			c0.076-0.345-0.016-0.375-0.274-0.09c0.868-0.282-2.142,2.757-2.732,3.007c0.077-0.888-0.015-1.07-0.275-0.547
			c-0.064-0.22,0.01-0.661-0.271-0.09c0.001-0.149,1.852-2.706,0.909-3.01c0.08,0.484-0.028,0.167-0.547,0.641
			c0.3-1.179-0.354-0.587-0.182-0.094c-0.618-1.082,1.347-1.275,1.186-1.275c0.019,0.149-0.079-1.867-0.821-1.502
			c0.935-0.46,0.002,1.153,0.002,0.502c0.243,0.028,0.243-0.003,0-0.094c-0.567,0.737-1.796,1.736-1.275,2.735
			c-1.223-1.127,0.829-2.56,0.531-3.305c-0.229-0.57-1.196,1.081-1.171,1.026c0.4-0.223,0.279-0.07-0.364,0.457
			c0.297-0.729,0.205-0.912-0.274-0.547c0.332-0.052,0.451-0.869,0.547-1.094c-0.522,0.162-0.646,0.866-0.91,1.185
			c0.107-0.228,0.549-1.435,0.547-1.551c-0.985,0.223,0.201-0.03-0.912,1.094c-0.061-0.121-0.121-0.121-0.182,0
			c0.006-0.458,0.158-0.822,0.456-1.094c-0.335-0.179-1.231,1.993-1.46,1.826c-0.162-0.151-0.314-0.121-0.456,0.09
			c0.566-0.382,0.08-1.703-0.091-0.728c-0.655-0.855,0.651-2.591,0-2.917c-0.325,0.315-1.019,1.351-1.185,1.709
			c0.143-0.443,0.264-0.892,0.365-1.347c-0.088,0.143-0.209,0.143-0.365,0c-0.006,0.005-0.274,1.559-0.91,1.366
			c0.429-1.136,0.737-0.104-0.365-0.544c0.666,0.051,0.544-0.621,0.638-0.822c-0.368,0.474-0.53,0.185-0.182,0.185
			c-0.481-0.602,1.191-0.749-0.547,0.272c0-0.253,0.395-0.245,0-0.272c0.32-0.58,1.183-0.834,1.018-1.661
			c-0.511-0.094-0.606-0.027-0.289,0.201c-0.535,0.105-0.729,1.765-1.185,2.279c-0.347-0.399,0.567-1.996-0.457-1.003
			c0.054-0.215-0.006-0.246-0.181-0.091c0.227-0.247,0.8-1.38,0.328-1.539c-0.124,0.209-0.233,0.237-0.328,0.082
			c0.099,0.794-1.092,0.087-0.548,1.638c-0.461-0.45-2.206,6.263-3.689,7.793c1.442-1.484-3.562,16.104-4.785,13.808
			c0.352-0.176,0.936,1.4,1.185,1.276c-0.146,0.089-0.116,0.149,0.091,0.181c-0.619,0.271-4.659,9.485-5.468,9.022
			c3.516,6.738-19.709,22.326-23.787,25.703c2.522,0.587,2.75-3.531,5.833-2.007c3.766,1.86,7.199,0.807,10.607,3.959
			c2.944,2.723,0.048,9.981,1.262,13.139c1.393,3.736-4.213,8.397-4.213,10.356c0,1.881,2.545,0.977,3.313,1.49
			c0.249,1.036-0.157,1.717-1.219,2.042c1.657,0.87,6.267,4.518,6.381,6.927c-2.021,2.021,5.381-0.547,6.06-0.547
			c6.863,0-2.481,8.107-2.871,9.297c0.403,0.404-1.565,6.653-2.551,6.653c-0.018-0.042,2.707,0.91,1.822,0.91
			c0.186,0.642,2.542,3.875,3.188,3.83c2.536-0.181,1.155,4.253,1.642,5.011c2.351,3.663,6.294,9.782,11.392,5.468
			c1.315,4.734-7.627,5.489-7.656,9.844c-0.015,2.735-3.37,4.779-3.37,7.204c0,2.124,6.307,3.163,6.196,3.46
			c-0.149,0.403-5.389-0.058-3.373,1.822c-0.918-0.857,1.612,4.123,2.188,2.004c0.072-0.266-6.189,4.586-2.004,5.377
			c-0.858,1.285,2.368,2.675,2.279,2.917c-0.81,2.266-1.232,3.082-2.007,6.108c0.333-0.029,2.102-0.681,2.278-0.592
			c-5.116-2.558-0.368,11.408,1.118,5.418c0.289-1.163-3.313,5.851-1.54,4.069c-2.109,2.118,0.562,5.539-1.4,6.961
			c7.676,3.03,2.004,8.929,2.004,15.221c0.269,0.164,0.391,0.407,0.365,0.729c0.137-0.192,0.319-0.162,0.548,0.091
			c0.568,0.904,18.7-11.939,18.866-11.939c0.081,0.002,7.837-2.398,6.743-1.641c0.396,0.277,3.678,0.547,3.826,0.547
			c1.577,1.247-2.173,4.463,0.995,5.148c1.045,0.227,10.125,1.15,10.125,0.002c0,4.794,17.282,6.419,19.092,8.077
			c5.278,4.835,3.297,7.636,9.764,5.801c1.313-0.372,5.421,0.758,6.414,1.751c0-1.209,5.336,2.509,5.105,2.37
			c0-0.33,3.64,2.012,1.549,3.053c-1.022,0.507-3.242,4.507-3.401,5.018c0.327-1.05-3.32,3.304-2.521,2.958
			c0.658-0.036,1.113,0.237,1.366,0.82c-2.017,2.46-4.102-0.118-4.102,4.83c0,2.125-1.453,3.451,1.256,5.242
			c1.081,0.714,2.201,0.873,3.254,2.434c0.544,0.815-0.295,2.821-0.388,2.759c1.002,0.669,7.936,4.76,7.727,5.604
			c0.678-0.734,1.756-3.325,1.185-3.734c7.107,0,5.185-11.595,5.852-15.83c0.24-1.529,4.21-14.928,3.764-15.385
			c-7.266-7.42,3.624-24.268-1.412-29.85c-2.065-0.453,5.151-11.124,5.559-10.207c2.158,4.848,16.635-22.005,18.678-24.303
			c6.573-7.399,11.703-12.408,18.143-19.898c-0.371,0.371,0.843-1.081,1.185-0.729c1.72-5.616,7.834-10.672,9.75-16.587
			C540.222,193.512,543.114,176.443,542.253,176.533C542.134,176.456,542.697,176.486,542.253,176.533z M408.573,99.892
			C409.018,100.044,408.609,100.323,408.573,99.892C408.657,99.921,408.583,100.012,408.573,99.892z M400.531,97.334
			C400.864,97.667,399.95,97.334,400.531,97.334C400.561,97.364,400.47,97.334,400.531,97.334z M442.822,114.925
			C442.774,115.069,442.817,114.94,442.822,114.925L442.822,114.925z M408.734,102.711c0.002-0.012,0.121,0.011-0.091,0.091
			C408.673,102.771,408.703,102.741,408.734,102.711z M404.176,98.428C404.176,98.659,404.037,98.706,404.176,98.428
			C404.176,98.488,404.146,98.488,404.176,98.428z M403.904,98.975C404.08,99.151,403.727,99.151,403.904,98.975
			C403.934,99.005,403.873,99.005,403.904,98.975z M400.621,100.069C400.929,99.771,400.474,100.338,400.621,100.069
			C400.653,100.039,400.6,100.108,400.621,100.069z M400.531,98.884c-0.035,0.074,0.007,0.123-0.091,0.182
			C400.466,98.884,400.591,98.846,400.531,98.884z M400.258,98.884C400.69,99.315,399.398,99.844,400.258,98.884
			C400.288,98.915,400.102,99.059,400.258,98.884z M400.077,97.7c-0.013-0.003-0.014-0.146,0.091,0
			C399.954,97.795,400.078,97.715,400.077,97.7z M399.984,98.247c-0.053-0.064-0.104-0.102-0.136-0.183
			C399.893,98.125,399.939,98.186,399.984,98.247z M397.707,96.059C397.775,96.125,397.774,96.124,397.707,96.059L397.707,96.059z
			 M395.383,96.651C395.384,96.72,395.384,96.717,395.383,96.651L395.383,96.651z M394.791,95.968
			C394.593,96.365,394.371,95.554,394.791,95.968C394.761,96.028,394.73,95.907,394.791,95.968z M394.952,95.159
			C395.143,95.372,394.581,95.411,394.952,95.159C394.997,95.209,394.881,95.208,394.952,95.159z M394.516,95.239
			C394.546,95.307,394.566,95.349,394.516,95.239L394.516,95.239z M394.243,95.239C394.889,94.909,393.739,95.991,394.243,95.239
			C394.329,95.195,394.108,95.441,394.243,95.239z M393.878,95.239C393.878,95.56,393.759,95.358,393.878,95.239
			C393.878,95.3,393.848,95.27,393.878,95.239z M393.422,94.783c-0.045,0.107-0.123,0.128-0.091,0.272
			C393.181,94.879,393.324,94.875,393.422,94.783z"/>
	</g>
</g>
</svg>
